<svg version="1.1" viewBox="0.0 0.0 704.0472440944882 384.4461942257218" fill="none" stroke="none" stroke-linecap="square" stroke-miterlimit="10" xmlns:xlink="http://www.w3.org/1999/xlink" xmlns="http://www.w3.org/2000/svg"><clipPath id="p.0"><path d="m0 0l704.04724 0l0 384.4462l-704.04724 0l0 -384.4462z" clip-rule="nonzero"/></clipPath><g clip-path="url(#p.0)"><path fill="#000000" fill-opacity="0.0" d="m0 0l704.04724 0l0 384.4462l-704.04724 0z" fill-rule="evenodd"/><path fill="#cfe2f3" d="m199.1811 317.32285l297.7638 0l0 51.62204l-297.7638 0z" fill-rule="evenodd"/><path stroke="#000000" stroke-width="1.0" stroke-linejoin="round" stroke-linecap="butt" d="m199.1811 317.32285l297.7638 0l0 51.62204l-297.7638 0z" fill-rule="evenodd"/><path fill="#000000" d="m257.09824 353.96573q-2.28125 0 -4.390625 -0.734375q-2.09375 -0.75 -3.234375 -1.9375l0.859375 -1.671875q1.078125 1.0625 2.90625 1.78125q1.84375 0.71875 3.859375 0.71875q1.9375 0 3.15625 -0.484375q1.21875 -0.484375 1.78125 -1.296875q0.578125 -0.828125 0.578125 -1.828125q0 -1.203125 -0.6875 -1.9375q-0.6875 -0.734375 -1.8125 -1.15625q-1.109375 -0.421875 -2.453125 -0.734375q-1.34375 -0.328125 -2.703125 -0.6875q-1.34375 -0.375 -2.484375 -0.984375q-1.125 -0.625 -1.8125 -1.640625q-0.6875 -1.015625 -0.6875 -2.65625q0 -1.515625 0.796875 -2.796875q0.8125 -1.28125 2.484375 -2.046875q1.671875 -0.78125 4.28125 -0.78125q1.734375 0 3.4375 0.484375q1.703125 0.484375 2.9375 1.328125l-0.734375 1.734375q-1.328125 -0.875 -2.8125 -1.28125q-1.46875 -0.421875 -2.84375 -0.421875q-1.859375 0 -3.0625 0.5q-1.203125 0.5 -1.78125 1.34375q-0.5625 0.828125 -0.5625 1.875q0 1.203125 0.6875 1.9375q0.6875 0.734375 1.8125 1.15625q1.140625 0.40625 2.484375 0.734375q1.359375 0.3125 2.6875 0.703125q1.328125 0.375 2.453125 0.984375q1.140625 0.59375 1.828125 1.59375q0.6875 1.0 0.6875 2.609375q0 1.484375 -0.828125 2.765625q-0.8125 1.28125 -2.5 2.0625q-1.6875 0.765625 -4.328125 0.765625zm19.80243 -15.71875q1.875 0 3.296875 0.71875q1.421875 0.71875 2.21875 2.1875q0.8125 1.46875 0.8125 3.703125l0 8.9375l-2.078125 0l0 -8.734375q0 -2.4375 -1.21875 -3.6875q-1.21875 -1.25 -3.421875 -1.25q-1.640625 0 -2.859375 0.671875q-1.203125 0.65625 -1.875 1.90625q-0.65625 1.234375 -0.65625 3.0l0 8.09375l-2.078125 0l0 -21.765625l2.078125 0l0 10.59375l-0.40625 -0.796875q0.734375 -1.671875 2.34375 -2.625q1.609375 -0.953125 3.84375 -0.953125zm21.607056 15.546875l0 -3.40625l-0.078125 -0.546875l0 -5.703125q0 -1.953125 -1.109375 -3.0q-1.09375 -1.0625 -3.265625 -1.0625q-1.5 0 -2.84375 0.5q-1.34375 0.484375 -2.28125 1.3125l-0.9375 -1.5625q1.171875 -0.984375 2.8125 -1.53125q1.640625 -0.546875 3.453125 -0.546875q3.0 0 4.625 1.484375q1.625 1.484375 1.625 4.5l0 9.5625l-2.0 0zm-5.296875 0.140625q-1.734375 0 -3.015625 -0.5625q-1.265625 -0.578125 -1.953125 -1.578125q-0.671875 -1.015625 -0.671875 -2.34375q0 -1.203125 0.5625 -2.1875q0.578125 -0.984375 1.875 -1.578125q1.3125 -0.59375 3.515625 -0.59375l5.3125 0l0 1.546875l-5.25 0q-2.234375 0 -3.09375 0.796875q-0.859375 0.78125 -0.859375 1.953125q0 1.328125 1.015625 2.125q1.03125 0.78125 2.875 0.78125q1.765625 0 3.03125 -0.796875q1.28125 -0.8125 1.875 -2.34375l0.46875 1.4375q-0.59375 1.53125 -2.046875 2.4375q-1.453125 0.90625 -3.640625 0.90625zm12.959839 -0.140625l0 -15.390625l1.984375 0l0 4.1875l-0.203125 -0.734375q0.65625 -1.765625 2.171875 -2.6875q1.53125 -0.921875 3.78125 -0.921875l0 2.03125q-0.109375 0 -0.234375 -0.015625q-0.109375 -0.015625 -0.234375 -0.015625q-2.421875 0 -3.8125 1.484375q-1.375 1.46875 -1.375 4.203125l0 7.859375l-2.078125 0zm17.910492 0.140625q-2.40625 0 -4.21875 -1.0q-1.8125 -1.015625 -2.84375 -2.78125q-1.03125 -1.78125 -1.03125 -4.078125q0 -2.28125 0.984375 -4.03125q0.984375 -1.765625 2.703125 -2.78125q1.71875 -1.015625 3.859375 -1.015625q2.171875 0 3.8437195 0.984375q1.6875 0.984375 2.65625 2.765625q0.96875 1.765625 0.96875 4.078125q0 0.15625 -0.015625 0.3125q-0.015625 0.15625 -0.015625 0.34375l-13.3905945 0l0 -1.5625l12.2812195 0l-0.8125 0.625q0 -1.671875 -0.71875 -2.96875q-0.71875 -1.3125 -1.9530945 -2.046875q-1.234375 -0.734375 -2.84375 -0.734375q-1.59375 0 -2.859375 0.734375q-1.25 0.734375 -1.953125 2.046875q-0.703125 1.3125 -0.703125 3.015625l0 0.328125q0 1.765625 0.765625 3.09375q0.78125 1.328125 2.171875 2.078125q1.40625 0.75 3.1875 0.75q1.40625 0 2.625 -0.5q1.2187195 -0.5 2.0937195 -1.515625l1.171875 1.34375q-1.015625 1.234375 -2.5625 1.875q-1.5312195 0.640625 -3.3905945 0.640625zm17.307892 0q-2.203125 0 -3.953125 -0.984375q-1.734375 -1.0 -2.734375 -2.765625q-1.0 -1.78125 -1.0 -4.109375q0 -2.34375 1.0 -4.09375q1.0 -1.765625 2.734375 -2.75q1.75 -0.984375 3.953125 -0.984375q2.03125 0 3.625 0.921875q1.59375 0.90625 2.546875 2.65625q0.953125 1.734375 0.953125 4.25q0 2.5 -0.9375 4.265625q-0.9375 1.75 -2.53125 2.671875q-1.59375 0.921875 -3.65625 0.921875zm0.15625 -1.84375q1.640625 0 2.9375 -0.75q1.3125 -0.75 2.046875 -2.109375q0.75 -1.359375 0.75 -3.15625q0 -1.8125 -0.75 -3.15625q-0.734375 -1.359375 -2.046875 -2.09375q-1.296875 -0.75 -2.9375 -0.75q-1.625 0 -2.921875 0.75q-1.28125 0.734375 -2.046875 2.09375q-0.765625 1.34375 -0.765625 3.15625q0 1.796875 0.765625 3.15625q0.765625 1.359375 2.046875 2.109375q1.296875 0.75 2.921875 0.75zm5.796875 1.703125l0 -4.640625l0.203125 -3.109375l-0.28125 -3.09375l0 -10.921875l2.078125 0l0 21.765625l-2.0 0zm15.490295 0l0 -21.765625l2.078125 0l0 21.765625l-2.078125 0zm17.529907 0l0 -3.40625l-0.078125 -0.546875l0 -5.703125q0 -1.953125 -1.109375 -3.0q-1.09375 -1.0625 -3.265625 -1.0625q-1.5 0 -2.84375 0.5q-1.34375 0.484375 -2.28125 1.3125l-0.9375 -1.5625q1.171875 -0.984375 2.8125 -1.53125q1.640625 -0.546875 3.453125 -0.546875q3.0 0 4.625 1.484375q1.625 1.484375 1.625 4.5l0 9.5625l-2.0 0zm-5.296875 0.140625q-1.734375 0 -3.015625 -0.5625q-1.265625 -0.578125 -1.953125 -1.578125q-0.671875 -1.015625 -0.671875 -2.34375q0 -1.203125 0.5625 -2.1875q0.578125 -0.984375 1.875 -1.578125q1.3125 -0.59375 3.515625 -0.59375l5.3125 0l0 1.546875l-5.25 0q-2.234375 0 -3.09375 0.796875q-0.859375 0.78125 -0.859375 1.953125q0 1.328125 1.015625 2.125q1.03125 0.78125 2.875 0.78125q1.765625 0 3.03125 -0.796875q1.28125 -0.8125 1.875 -2.34375l0.46875 1.4375q-0.59375 1.53125 -2.046875 2.4375q-1.453125 0.90625 -3.640625 0.90625zm12.775879 5.703125q-1.078125 0 -2.0625 -0.359375q-0.984375 -0.359375 -1.6875 -1.0625l0.96875 -1.546875q0.59375 0.5625 1.28125 0.859375q0.6875 0.3125 1.53125 0.3125q1.03125 0 1.78125 -0.578125q0.75 -0.5625 1.421875 -2.0l1.0 -2.265625l0.234375 -0.3125l6.328125 -14.28125l2.046875 0l-7.703125 17.234375q-0.640625 1.5 -1.421875 2.375q-0.78125 0.890625 -1.6875 1.25q-0.90625 0.375 -2.03125 0.375zm4.109375 -5.40625l-7.09375 -15.828125l2.171875 0l6.265625 14.125l-1.34375 1.703125zm17.76831 -0.296875q-2.40625 0 -4.21875 -1.0q-1.8125 -1.015625 -2.84375 -2.78125q-1.03125 -1.78125 -1.03125 -4.078125q0 -2.28125 0.984375 -4.03125q0.984375 -1.765625 2.703125 -2.78125q1.71875 -1.015625 3.859375 -1.015625q2.171875 0 3.84375 0.984375q1.6875 0.984375 2.65625 2.765625q0.96875 1.765625 0.96875 4.078125q0 0.15625 -0.015625 0.3125q-0.015625 0.15625 -0.015625 0.34375l-13.390625 0l0 -1.5625l12.28125 0l-0.8125 0.625q0 -1.671875 -0.71875 -2.96875q-0.71875 -1.3125 -1.953125 -2.046875q-1.234375 -0.734375 -2.84375 -0.734375q-1.59375 0 -2.859375 0.734375q-1.25 0.734375 -1.953125 2.046875q-0.703125 1.3125 -0.703125 3.015625l0 0.328125q0 1.765625 0.765625 3.09375q0.78125 1.328125 2.171875 2.078125q1.40625 0.75 3.1875 0.75q1.40625 0 2.625 -0.5q1.21875 -0.5 2.09375 -1.515625l1.171875 1.34375q-1.015625 1.234375 -2.5625 1.875q-1.53125 0.640625 -3.390625 0.640625zm11.182922 -0.140625l0 -15.390625l1.984375 0l0 4.1875l-0.203125 -0.734375q0.65625 -1.765625 2.171875 -2.6875q1.53125 -0.921875 3.78125 -0.921875l0 2.03125q-0.109375 0 -0.234375 -0.015625q-0.109375 -0.015625 -0.234375 -0.015625q-2.421875 0 -3.8125 1.484375q-1.375 1.46875 -1.375 4.203125l0 7.859375l-2.078125 0zm21.647675 0l0 -19.65625l0.9375 1.0l-5.78125 0l0 -1.875l6.953125 0l0 20.53125l-2.109375 0z" fill-rule="nonzero"/><path fill="#cfe2f3" d="m199.1811 230.99213l297.7638 0l0 51.62204l-297.7638 0z" fill-rule="evenodd"/><path stroke="#000000" stroke-width="1.0" stroke-linejoin="round" stroke-linecap="butt" d="m199.1811 230.99213l297.7638 0l0 51.62204l-297.7638 0z" fill-rule="evenodd"/><path fill="#000000" d="m252.90433 267.635q-2.28125 0 -4.390625 -0.734375q-2.09375 -0.75 -3.234375 -1.9375l0.859375 -1.671875q1.078125 1.0625 2.90625 1.78125q1.84375 0.71875 3.859375 0.71875q1.9375 0 3.15625 -0.484375q1.21875 -0.484375 1.78125 -1.296875q0.578125 -0.828125 0.578125 -1.828125q0 -1.203125 -0.6875 -1.9375q-0.6875 -0.734375 -1.8125 -1.15625q-1.109375 -0.421875 -2.453125 -0.734375q-1.34375 -0.328125 -2.703125 -0.6875q-1.34375 -0.375 -2.484375 -0.984375q-1.125 -0.625 -1.8125 -1.6406097q-0.6875 -1.015625 -0.6875 -2.65625q0 -1.515625 0.796875 -2.796875q0.8125 -1.28125 2.484375 -2.046875q1.671875 -0.78125 4.28125 -0.78125q1.734375 0 3.4375 0.484375q1.703125 0.484375 2.9375 1.328125l-0.734375 1.734375q-1.328125 -0.875 -2.8125 -1.28125q-1.46875 -0.421875 -2.84375 -0.421875q-1.859375 0 -3.0625 0.5q-1.203125 0.5 -1.78125 1.34375q-0.5625 0.828125 -0.5625 1.875q0 1.203125 0.6875 1.9375q0.6875 0.734375 1.8125 1.15625q1.140625 0.40625 2.484375 0.73435974q1.359375 0.3125 2.6875 0.703125q1.328125 0.375 2.453125 0.984375q1.140625 0.59375 1.828125 1.59375q0.6875 1.0 0.6875 2.609375q0 1.484375 -0.828125 2.765625q-0.8125 1.28125 -2.5 2.0625q-1.6875 0.765625 -4.328125 0.765625zm19.802399 -15.718735q1.875 0 3.296875 0.71875q1.421875 0.71875 2.21875 2.1875q0.8125 1.4687347 0.8125 3.7031097l0 8.9375l-2.078125 0l0 -8.734375q0 -2.4375 -1.21875 -3.6874847q-1.21875 -1.25 -3.421875 -1.25q-1.640625 0 -2.859375 0.671875q-1.203125 0.65625 -1.875 1.9062347q-0.65625 1.234375 -0.65625 3.0l0 8.09375l-2.078125 0l0 -21.76561l2.078125 0l0 10.593735l-0.40625 -0.79685974q0.734375 -1.671875 2.34375 -2.625q1.609375 -0.953125 3.84375 -0.953125zm21.607056 15.54686l0 -3.40625l-0.078125 -0.546875l0 -5.703125q0 -1.9531097 -1.109375 -2.9999847q-1.09375 -1.0625 -3.265625 -1.0625q-1.5 0 -2.84375 0.5q-1.34375 0.484375 -2.28125 1.3125l-0.9375 -1.5625q1.171875 -0.984375 2.8125 -1.53125q1.640625 -0.546875 3.453125 -0.546875q3.0 0 4.625 1.484375q1.625 1.484375 1.625 4.4999847l0 9.5625l-2.0 0zm-5.296875 0.140625q-1.734375 0 -3.015625 -0.5625q-1.265625 -0.578125 -1.953125 -1.578125q-0.671875 -1.015625 -0.671875 -2.34375q0 -1.203125 0.5625 -2.1875q0.578125 -0.984375 1.875 -1.578125q1.3125 -0.59375 3.515625 -0.59375l5.3125 0l0 1.546875l-5.25 0q-2.234375 0 -3.09375 0.796875q-0.859375 0.78125 -0.859375 1.953125q0 1.328125 1.015625 2.125q1.03125 0.78125 2.875 0.78125q1.765625 0 3.03125 -0.796875q1.28125 -0.8125 1.875 -2.34375l0.46875 1.4375q-0.59375 1.53125 -2.046875 2.4375q-1.453125 0.90625 -3.640625 0.90625zm12.959839 -0.140625l0 -15.39061l1.984375 0l0 4.1874847l-0.203125 -0.73435974q0.65625 -1.765625 2.171875 -2.6875q1.53125 -0.921875 3.78125 -0.921875l0 2.03125q-0.109375 0 -0.234375 -0.015625q-0.109375 -0.015625 -0.234375 -0.015625q-2.421875 0 -3.8125 1.484375q-1.375 1.4687347 -1.375 4.2031097l0 7.859375l-2.078125 0zm17.910492 0.140625q-2.40625 0 -4.21875 -1.0q-1.8125 -1.015625 -2.84375 -2.78125q-1.03125 -1.78125 -1.03125 -4.078125q0 -2.28125 0.984375 -4.0312347q0.984375 -1.765625 2.703125 -2.78125q1.71875 -1.015625 3.859375 -1.015625q2.171875 0 3.84375 0.984375q1.6875 0.984375 2.65625 2.765625q0.96875 1.7656097 0.96875 4.0781097q0 0.15625 -0.015625 0.3125q-0.015625 0.15625 -0.015625 0.34375l-13.390625 0l0 -1.5625l12.28125 0l-0.8125 0.625q0 -1.671875 -0.71875 -2.96875q-0.71875 -1.3124847 -1.953125 -2.0468597q-1.234375 -0.734375 -2.84375 -0.734375q-1.59375 0 -2.859375 0.734375q-1.25 0.734375 -1.953125 2.0468597q-0.703125 1.3125 -0.703125 3.015625l0 0.328125q0 1.765625 0.765625 3.09375q0.78125 1.328125 2.171875 2.078125q1.40625 0.75 3.1875 0.75q1.40625 0 2.625 -0.5q1.21875 -0.5 2.09375 -1.515625l1.171875 1.34375q-1.015625 1.234375 -2.5625 1.875q-1.53125 0.640625 -3.390625 0.640625zm17.307922 0q-2.203125 0 -3.953125 -0.984375q-1.734375 -1.0 -2.734375 -2.765625q-1.0 -1.78125 -1.0 -4.109375q0 -2.34375 1.0 -4.0937347q1.0 -1.765625 2.734375 -2.75q1.75 -0.984375 3.953125 -0.984375q2.03125 0 3.625 0.921875q1.59375 0.90625 2.546875 2.65625q0.953125 1.7343597 0.953125 4.2499847q0 2.5 -0.9375 4.265625q-0.9375 1.75 -2.53125 2.671875q-1.59375 0.921875 -3.65625 0.921875zm0.15625 -1.84375q1.640625 0 2.9375 -0.75q1.3125 -0.75 2.046875 -2.109375q0.75 -1.359375 0.75 -3.15625q0 -1.8125 -0.75 -3.15625q-0.734375 -1.3593597 -2.046875 -2.0937347q-1.296875 -0.75 -2.9375 -0.75q-1.625 0 -2.921875 0.75q-1.28125 0.734375 -2.046875 2.0937347q-0.765625 1.34375 -0.765625 3.15625q0 1.796875 0.765625 3.15625q0.765625 1.359375 2.046875 2.109375q1.296875 0.75 2.921875 0.75zm5.796875 1.703125l0 -4.640625l0.203125 -3.109375l-0.28125 -3.09375l0 -10.92186l2.078125 0l0 21.76561l-2.0 0zm15.490295 0l0 -21.76561l2.078125 0l0 21.76561l-2.078125 0zm17.529907 0l0 -3.40625l-0.078125 -0.546875l0 -5.703125q0 -1.9531097 -1.109375 -2.9999847q-1.09375 -1.0625 -3.265625 -1.0625q-1.5 0 -2.84375 0.5q-1.34375 0.484375 -2.28125 1.3125l-0.9375 -1.5625q1.171875 -0.984375 2.8125 -1.53125q1.640625 -0.546875 3.453125 -0.546875q3.0 0 4.625 1.484375q1.625 1.484375 1.625 4.4999847l0 9.5625l-2.0 0zm-5.296875 0.140625q-1.734375 0 -3.015625 -0.5625q-1.265625 -0.578125 -1.953125 -1.578125q-0.671875 -1.015625 -0.671875 -2.34375q0 -1.203125 0.5625 -2.1875q0.578125 -0.984375 1.875 -1.578125q1.3125 -0.59375 3.515625 -0.59375l5.3125 0l0 1.546875l-5.25 0q-2.234375 0 -3.09375 0.796875q-0.859375 0.78125 -0.859375 1.953125q0 1.328125 1.015625 2.125q1.03125 0.78125 2.875 0.78125q1.765625 0 3.03125 -0.796875q1.28125 -0.8125 1.875 -2.34375l0.46875 1.4375q-0.59375 1.53125 -2.046875 2.4375q-1.453125 0.90625 -3.640625 0.90625zm12.775879 5.703125q-1.078125 0 -2.0625 -0.359375q-0.984375 -0.359375 -1.6875 -1.0625l0.96875 -1.546875q0.59375 0.5625 1.28125 0.859375q0.6875 0.3125 1.53125 0.3125q1.03125 0 1.78125 -0.578125q0.75 -0.5625 1.421875 -2.0l1.0 -2.265625l0.234375 -0.3125l6.328125 -14.281235l2.046875 0l-7.703125 17.23436q-0.640625 1.5 -1.421875 2.375q-0.78125 0.890625 -1.6875 1.25q-0.90625 0.375 -2.03125 0.375zm4.109375 -5.40625l-7.09375 -15.82811l2.171875 0l6.265625 14.124985l-1.34375 1.703125zm17.76831 -0.296875q-2.40625 0 -4.21875 -1.0q-1.8125 -1.015625 -2.84375 -2.78125q-1.03125 -1.78125 -1.03125 -4.078125q0 -2.28125 0.984375 -4.0312347q0.984375 -1.765625 2.703125 -2.78125q1.71875 -1.015625 3.859375 -1.015625q2.171875 0 3.84375 0.984375q1.6875 0.984375 2.65625 2.765625q0.96875 1.7656097 0.96875 4.0781097q0 0.15625 -0.015625 0.3125q-0.015625 0.15625 -0.015625 0.34375l-13.390625 0l0 -1.5625l12.28125 0l-0.8125 0.625q0 -1.671875 -0.71875 -2.96875q-0.71875 -1.3124847 -1.953125 -2.0468597q-1.234375 -0.734375 -2.84375 -0.734375q-1.59375 0 -2.859375 0.734375q-1.25 0.734375 -1.953125 2.0468597q-0.703125 1.3125 -0.703125 3.015625l0 0.328125q0 1.765625 0.765625 3.09375q0.78125 1.328125 2.171875 2.078125q1.40625 0.75 3.1875 0.75q1.40625 0 2.625 -0.5q1.21875 -0.5 2.09375 -1.515625l1.171875 1.34375q-1.015625 1.234375 -2.5625 1.875q-1.53125 0.640625 -3.390625 0.640625zm11.182922 -0.140625l0 -15.39061l1.984375 0l0 4.1874847l-0.203125 -0.73435974q0.65625 -1.765625 2.171875 -2.6875q1.53125 -0.921875 3.78125 -0.921875l0 2.03125q-0.109375 0 -0.234375 -0.015625q-0.109375 -0.015625 -0.234375 -0.015625q-2.421875 0 -3.8125 1.484375q-1.375 1.4687347 -1.375 4.2031097l0 7.859375l-2.078125 0zm19.647675 0.140625q-0.640625 0 -1.109375 -0.46875q-0.453125 -0.46875 -0.453125 -1.140625q0 -0.703125 0.453125 -1.140625q0.46875 -0.4375 1.109375 -0.4375q0.640625 0 1.09375 0.4375q0.453125 0.4375 0.453125 1.140625q0 0.671875 -0.453125 1.140625q-0.453125 0.46875 -1.09375 0.46875zm6.359375 0q-0.640625 0 -1.109375 -0.46875q-0.453125 -0.46875 -0.453125 -1.140625q0 -0.703125 0.453125 -1.140625q0.46875 -0.4375 1.109375 -0.4375q0.640625 0 1.09375 0.4375q0.453125 0.4375 0.453125 1.140625q0 0.671875 -0.453125 1.140625q-0.453125 0.46875 -1.09375 0.46875zm6.390625 0q-0.640625 0 -1.109375 -0.46875q-0.453125 -0.46875 -0.453125 -1.140625q0 -0.703125 0.453125 -1.140625q0.46875 -0.4375 1.109375 -0.4375q0.640625 0 1.09375 0.4375q0.453125 0.4375 0.453125 1.140625q0 0.671875 -0.453125 1.140625q-0.453125 0.46875 -1.09375 0.46875z" fill-rule="nonzero"/><path fill="#cfe2f3" d="m199.1811 144.66142l297.7638 0l0 51.62204l-297.7638 0z" fill-rule="evenodd"/><path stroke="#000000" stroke-width="1.0" stroke-linejoin="round" stroke-linecap="butt" d="m199.1811 144.66142l297.7638 0l0 51.62204l-297.7638 0z" fill-rule="evenodd"/><path fill="#000000" d="m250.4701 181.30432q-2.28125 0 -4.390625 -0.734375q-2.09375 -0.75 -3.234375 -1.9375l0.859375 -1.671875q1.078125 1.0625 2.90625 1.78125q1.84375 0.71875 3.859375 0.71875q1.9375 0 3.15625 -0.484375q1.21875 -0.484375 1.78125 -1.296875q0.578125 -0.828125 0.578125 -1.828125q0 -1.203125 -0.6875 -1.9375q-0.6875 -0.734375 -1.8125 -1.15625q-1.109375 -0.421875 -2.453125 -0.734375q-1.34375 -0.328125 -2.703125 -0.6875q-1.34375 -0.375 -2.484375 -0.984375q-1.125 -0.625 -1.8125 -1.640625q-0.6875 -1.015625 -0.6875 -2.65625q0 -1.515625 0.796875 -2.796875q0.8125 -1.28125 2.484375 -2.046875q1.671875 -0.78125 4.28125 -0.78125q1.734375 0 3.4375 0.484375q1.703125 0.484375 2.9375 1.328125l-0.734375 1.734375q-1.328125 -0.875 -2.8125 -1.28125q-1.46875 -0.421875 -2.84375 -0.421875q-1.859375 0 -3.0625 0.5q-1.203125 0.5 -1.78125 1.34375q-0.5625 0.828125 -0.5625 1.875q0 1.203125 0.6875 1.9375q0.6875 0.734375 1.8125 1.15625q1.140625 0.40625 2.484375 0.734375q1.359375 0.3125 2.6875 0.703125q1.328125 0.375 2.453125 0.984375q1.140625 0.59375 1.828125 1.59375q0.6875 1.0 0.6875 2.609375q0 1.484375 -0.828125 2.765625q-0.8125 1.28125 -2.5 2.0625q-1.6875 0.765625 -4.328125 0.765625zm19.802399 -15.71875q1.875 0 3.296875 0.71875q1.421875 0.71875 2.21875 2.1875q0.8125 1.46875 0.8125 3.703125l0 8.9375l-2.078125 0l0 -8.734375q0 -2.4375 -1.21875 -3.6875q-1.21875 -1.25 -3.421875 -1.25q-1.640625 0 -2.859375 0.671875q-1.203125 0.65625 -1.875 1.90625q-0.65625 1.234375 -0.65625 3.0l0 8.09375l-2.078125 0l0 -21.765625l2.078125 0l0 10.59375l-0.40625 -0.796875q0.734375 -1.671875 2.34375 -2.625q1.609375 -0.953125 3.84375 -0.953125zm21.607056 15.546875l0 -3.40625l-0.078125 -0.546875l0 -5.703125q0 -1.953125 -1.109375 -3.0q-1.09375 -1.0625 -3.265625 -1.0625q-1.5 0 -2.84375 0.5q-1.34375 0.484375 -2.28125 1.3125l-0.9375 -1.5625q1.171875 -0.984375 2.8125 -1.53125q1.640625 -0.546875 3.453125 -0.546875q3.0 0 4.625 1.484375q1.625 1.484375 1.625 4.5l0 9.5625l-2.0 0zm-5.296875 0.140625q-1.734375 0 -3.015625 -0.5625q-1.265625 -0.578125 -1.953125 -1.578125q-0.671875 -1.015625 -0.671875 -2.34375q0 -1.203125 0.5625 -2.1875q0.578125 -0.984375 1.875 -1.578125q1.3125 -0.59375 3.515625 -0.59375l5.3125 0l0 1.546875l-5.25 0q-2.234375 0 -3.09375 0.796875q-0.859375 0.78125 -0.859375 1.953125q0 1.328125 1.015625 2.125q1.03125 0.78125 2.875 0.78125q1.765625 0 3.03125 -0.796875q1.28125 -0.8125 1.875 -2.34375l0.46875 1.4375q-0.59375 1.53125 -2.046875 2.4375q-1.453125 0.90625 -3.640625 0.90625zm12.959839 -0.140625l0 -15.390625l1.984375 0l0 4.1875l-0.203125 -0.734375q0.65625 -1.765625 2.171875 -2.6875q1.53125 -0.921875 3.78125 -0.921875l0 2.03125q-0.109375 0 -0.234375 -0.015625q-0.109375 -0.015625 -0.234375 -0.015625q-2.421875 0 -3.8125 1.484375q-1.375 1.46875 -1.375 4.203125l0 7.859375l-2.078125 0zm17.910492 0.140625q-2.40625 0 -4.21875 -1.0q-1.8125 -1.015625 -2.84375 -2.78125q-1.03125 -1.78125 -1.03125 -4.078125q0 -2.28125 0.984375 -4.03125q0.984375 -1.765625 2.703125 -2.78125q1.71875 -1.015625 3.859375 -1.015625q2.171875 0 3.84375 0.984375q1.6875 0.984375 2.65625 2.765625q0.96875 1.765625 0.96875 4.078125q0 0.15625 -0.015625 0.3125q-0.015625 0.15625 -0.015625 0.34375l-13.390625 0l0 -1.5625l12.28125 0l-0.8125 0.625q0 -1.671875 -0.71875 -2.96875q-0.71875 -1.3125 -1.953125 -2.046875q-1.234375 -0.734375 -2.84375 -0.734375q-1.59375 0 -2.859375 0.734375q-1.25 0.734375 -1.953125 2.046875q-0.703125 1.3125 -0.703125 3.015625l0 0.328125q0 1.765625 0.765625 3.09375q0.78125 1.328125 2.171875 2.078125q1.40625 0.75 3.1875 0.75q1.40625 0 2.625 -0.5q1.21875 -0.5 2.09375 -1.515625l1.171875 1.34375q-1.015625 1.234375 -2.5625 1.875q-1.53125 0.640625 -3.390625 0.640625zm17.307922 0q-2.203125 0 -3.953125 -0.984375q-1.734375 -1.0 -2.734375 -2.765625q-1.0 -1.78125 -1.0 -4.109375q0 -2.34375 1.0 -4.09375q1.0 -1.765625 2.734375 -2.75q1.75 -0.984375 3.953125 -0.984375q2.03125 0 3.625 0.921875q1.59375 0.90625 2.546875 2.65625q0.953125 1.734375 0.953125 4.25q0 2.5 -0.9375 4.265625q-0.9375 1.75 -2.53125 2.671875q-1.59375 0.921875 -3.65625 0.921875zm0.15625 -1.84375q1.640625 0 2.9375 -0.75q1.3125 -0.75 2.046875 -2.109375q0.75 -1.359375 0.75 -3.15625q0 -1.8125 -0.75 -3.15625q-0.734375 -1.359375 -2.046875 -2.09375q-1.296875 -0.75 -2.9375 -0.75q-1.625 0 -2.921875 0.75q-1.28125 0.734375 -2.046875 2.09375q-0.765625 1.34375 -0.765625 3.15625q0 1.796875 0.765625 3.15625q0.765625 1.359375 2.046875 2.109375q1.296875 0.75 2.921875 0.75zm5.796875 1.703125l0 -4.640625l0.203125 -3.109375l-0.28125 -3.09375l0 -10.921875l2.078125 0l0 21.765625l-2.0 0zm15.490295 0l0 -21.765625l2.078125 0l0 21.765625l-2.078125 0zm17.529907 0l0 -3.40625l-0.078125 -0.546875l0 -5.703125q0 -1.953125 -1.109375 -3.0q-1.09375 -1.0625 -3.265625 -1.0625q-1.5 0 -2.84375 0.5q-1.34375 0.484375 -2.28125 1.3125l-0.9375 -1.5625q1.171875 -0.984375 2.8125 -1.53125q1.640625 -0.546875 3.453125 -0.546875q3.0 0 4.625 1.484375q1.625 1.484375 1.625 4.5l0 9.5625l-2.0 0zm-5.296875 0.140625q-1.734375 0 -3.015625 -0.5625q-1.265625 -0.578125 -1.953125 -1.578125q-0.671875 -1.015625 -0.671875 -2.34375q0 -1.203125 0.5625 -2.1875q0.578125 -0.984375 1.875 -1.578125q1.3125 -0.59375 3.515625 -0.59375l5.3125 0l0 1.546875l-5.25 0q-2.234375 0 -3.09375 0.796875q-0.859375 0.78125 -0.859375 1.953125q0 1.328125 1.015625 2.125q1.03125 0.78125 2.875 0.78125q1.765625 0 3.03125 -0.796875q1.28125 -0.8125 1.875 -2.34375l0.46875 1.4375q-0.59375 1.53125 -2.046875 2.4375q-1.453125 0.90625 -3.640625 0.90625zm12.775879 5.703125q-1.078125 0 -2.0625 -0.359375q-0.984375 -0.359375 -1.6875 -1.0625l0.96875 -1.546875q0.59375 0.5625 1.28125 0.859375q0.6875 0.3125 1.53125 0.3125q1.03125 0 1.78125 -0.578125q0.75 -0.5625 1.421875 -2.0l1.0 -2.265625l0.234375 -0.3125l6.328125 -14.28125l2.046875 0l-7.703125 17.234375q-0.640625 1.5 -1.421875 2.375q-0.78125 0.890625 -1.6875 1.25q-0.90625 0.375 -2.03125 0.375zm4.109375 -5.40625l-7.09375 -15.828125l2.171875 0l6.265625 14.125l-1.34375 1.703125zm17.76831 -0.296875q-2.40625 0 -4.21875 -1.0q-1.8125 -1.015625 -2.84375 -2.78125q-1.03125 -1.78125 -1.03125 -4.078125q0 -2.28125 0.984375 -4.03125q0.984375 -1.765625 2.703125 -2.78125q1.71875 -1.015625 3.859375 -1.015625q2.171875 0 3.84375 0.984375q1.6875 0.984375 2.65625 2.765625q0.96875 1.765625 0.96875 4.078125q0 0.15625 -0.015625 0.3125q-0.015625 0.15625 -0.015625 0.34375l-13.390625 0l0 -1.5625l12.28125 0l-0.8125 0.625q0 -1.671875 -0.71875 -2.96875q-0.71875 -1.3125 -1.953125 -2.046875q-1.234375 -0.734375 -2.84375 -0.734375q-1.59375 0 -2.859375 0.734375q-1.25 0.734375 -1.953125 2.046875q-0.703125 1.3125 -0.703125 3.015625l0 0.328125q0 1.765625 0.765625 3.09375q0.78125 1.328125 2.171875 2.078125q1.40625 0.75 3.1875 0.75q1.40625 0 2.625 -0.5q1.21875 -0.5 2.09375 -1.515625l1.171875 1.34375q-1.015625 1.234375 -2.5625 1.875q-1.53125 0.640625 -3.390625 0.640625zm11.182922 -0.140625l0 -15.390625l1.984375 0l0 4.1875l-0.203125 -0.734375q0.65625 -1.765625 2.171875 -2.6875q1.53125 -0.921875 3.78125 -0.921875l0 2.03125q-0.109375 0 -0.234375 -0.015625q-0.109375 -0.015625 -0.234375 -0.015625q-2.421875 0 -3.8125 1.484375q-1.375 1.46875 -1.375 4.203125l0 7.859375l-2.078125 0zm19.88205 0l0 -20.53125l1.78125 0l14.171875 17.828125l-0.9375 0l0 -17.828125l2.140625 0l0 20.53125l-1.78125 0l-14.140625 -17.828125l0.9375 0l0 17.828125l-2.171875 0z" fill-rule="nonzero"/><path fill="#cfe2f3" d="m13.881889 12.23622l197.32285 0l0 51.622047l-197.32285 0z" fill-rule="evenodd"/><path stroke="#000000" stroke-width="1.0" stroke-linejoin="round" stroke-linecap="butt" d="m13.881889 12.23622l197.32285 0l0 51.622047l-197.32285 0z" fill-rule="evenodd"/><path fill="#000000" d="m72.902534 48.707245l0 -18.65625l-7.203125 0l0 -1.875l16.59375 0l0 1.875l-7.21875 0l0 18.65625l-2.171875 0zm21.202423 0l0 -3.40625l-0.078125 -0.546875l0 -5.703125q0 -1.953125 -1.109375 -3.0q-1.09375 -1.0625 -3.265625 -1.0625q-1.5 0 -2.84375 0.5q-1.34375 0.484375 -2.28125 1.3125l-0.9375 -1.5625q1.171875 -0.984375 2.8125 -1.53125q1.640625 -0.546875 3.453125 -0.546875q3.0 0 4.625 1.484375q1.625 1.484375 1.625 4.5l0 9.5625l-2.0 0zm-5.296875 0.140625q-1.734375 0 -3.015625 -0.5625q-1.265625 -0.578125 -1.953125 -1.578125q-0.671875 -1.015625 -0.671875 -2.34375q0 -1.203125 0.5625 -2.1875q0.578125 -0.984375 1.875 -1.578125q1.3125 -0.59375 3.515625 -0.59375l5.3125 0l0 1.546875l-5.25 0q-2.234375 0 -3.09375 0.796875q-0.859375 0.78125 -0.859375 1.953125q0 1.328125 1.015625 2.125q1.03125 0.78125 2.875 0.78125q1.765625 0 3.03125 -0.796875q1.28125 -0.8125 1.875 -2.34375l0.46875 1.4375q-0.59375 1.53125 -2.046875 2.4375q-1.453125 0.90625 -3.640625 0.90625zm17.084839 0q-1.90625 0 -3.609375 -0.53125q-1.6875 -0.546875 -2.65625 -1.375l0.9375 -1.640625q0.9375 0.703125 2.40625 1.21875q1.46875 0.515625 3.078125 0.515625q2.203125 0 3.171875 -0.6875q0.96875 -0.6875 0.96875 -1.828125q0 -0.859375 -0.546875 -1.34375q-0.546875 -0.484375 -1.4375 -0.734375q-0.875 -0.25 -1.953125 -0.421875q-1.078125 -0.171875 -2.15625 -0.40625q-1.0625 -0.234375 -1.953125 -0.6875q-0.875 -0.453125 -1.421875 -1.25q-0.546875 -0.796875 -0.546875 -2.109375q0 -1.265625 0.703125 -2.265625q0.71875 -1.0 2.078125 -1.5625q1.359375 -0.578125 3.328125 -0.578125q1.5 0 2.984375 0.40625q1.5 0.390625 2.46875 1.03125l-0.90625 1.671875q-1.03125 -0.703125 -2.203125 -1.0q-1.171875 -0.3125 -2.34375 -0.3125q-2.078125 0 -3.0625 0.71875q-0.984375 0.71875 -0.984375 1.828125q0 0.875 0.53125 1.375q0.546875 0.5 1.4375 0.78125q0.90625 0.28125 1.96875 0.453125q1.078125 0.171875 2.140625 0.421875q1.078125 0.25 1.96875 0.6875q0.890625 0.421875 1.4375 1.203125q0.546875 0.765625 0.546875 2.03125q0 1.34375 -0.75 2.328125q-0.75 0.984375 -2.171875 1.53125q-1.421875 0.53125 -3.453125 0.53125zm11.827744 -4.125l0.0625 -2.671875l9.578125 -8.734375l2.5625076 0l-6.7812576 6.46875l-1.171875 1.0l-4.25 3.9375zm-1.640625 3.984375l0 -21.765625l2.078125 0l0 21.765625l-2.078125 0zm11.937508 0l-6.4218826 -8.0l1.34375 -1.625l7.6250076 9.625l-2.546875 0zm10.5289 0l9.375 -20.53125l2.140625 0l9.390625 20.53125l-2.28125 0l-8.625 -19.265625l0.875 0l-8.625 19.265625l-2.25 0zm3.6875 -5.484375l0.65625 -1.765625l11.921875 0l0.65625 1.765625l-13.234375 0z" fill-rule="nonzero"/><path fill="#cfe2f3" d="m256.04462 12.23622l197.32285 0l0 51.622047l-197.32285 0z" fill-rule="evenodd"/><path stroke="#000000" stroke-width="1.0" stroke-linejoin="round" stroke-linecap="butt" d="m256.04462 12.23622l197.32285 0l0 51.622047l-197.32285 0z" fill-rule="evenodd"/><path fill="#000000" d="m314.5227 48.707245l0 -18.65625l-7.203125 0l0 -1.875l16.59375 0l0 1.875l-7.21875 0l0 18.65625l-2.171875 0zm21.202423 0l0 -3.40625l-0.078125 -0.546875l0 -5.703125q0 -1.953125 -1.109375 -3.0q-1.09375 -1.0625 -3.265625 -1.0625q-1.5 0 -2.84375 0.5q-1.34375 0.484375 -2.28125 1.3125l-0.9375 -1.5625q1.171875 -0.984375 2.8125 -1.53125q1.640625 -0.546875 3.453125 -0.546875q3.0 0 4.625 1.484375q1.625 1.484375 1.625 4.5l0 9.5625l-2.0 0zm-5.296875 0.140625q-1.734375 0 -3.015625 -0.5625q-1.265625 -0.578125 -1.953125 -1.578125q-0.671875 -1.015625 -0.671875 -2.34375q0 -1.203125 0.5625 -2.1875q0.578125 -0.984375 1.875 -1.578125q1.3125 -0.59375 3.515625 -0.59375l5.3125 0l0 1.546875l-5.25 0q-2.234375 0 -3.09375 0.796875q-0.859375 0.78125 -0.859375 1.953125q0 1.328125 1.015625 2.125q1.03125 0.78125 2.875 0.78125q1.765625 0 3.03125 -0.796875q1.28125 -0.8125 1.875 -2.34375l0.46875 1.4375q-0.59375 1.53125 -2.046875 2.4375q-1.453125 0.90625 -3.640625 0.90625zm17.084839 0q-1.90625 0 -3.609375 -0.53125q-1.6875 -0.546875 -2.65625 -1.375l0.9375 -1.640625q0.9375 0.703125 2.40625 1.21875q1.46875 0.515625 3.078125 0.515625q2.203125 0 3.171875 -0.6875q0.96875 -0.6875 0.96875 -1.828125q0 -0.859375 -0.546875 -1.34375q-0.546875 -0.484375 -1.4375 -0.734375q-0.875 -0.25 -1.953125 -0.421875q-1.078125 -0.171875 -2.15625 -0.40625q-1.0625 -0.234375 -1.953125 -0.6875q-0.875 -0.453125 -1.421875 -1.25q-0.546875 -0.796875 -0.546875 -2.109375q0 -1.265625 0.703125 -2.265625q0.71875 -1.0 2.078125 -1.5625q1.359375 -0.578125 3.328125 -0.578125q1.5 0 2.984375 0.40625q1.5 0.390625 2.46875 1.03125l-0.90625 1.671875q-1.03125 -0.703125 -2.203125 -1.0q-1.171875 -0.3125 -2.34375 -0.3125q-2.078125 0 -3.0625 0.71875q-0.984375 0.71875 -0.984375 1.828125q0 0.875 0.53125 1.375q0.546875 0.5 1.4375 0.78125q0.90625 0.28125 1.96875 0.453125q1.078125 0.171875 2.140625 0.421875q1.078125 0.25 1.96875 0.6875q0.890625 0.421875 1.4375 1.203125q0.546875 0.765625 0.546875 2.03125q0 1.34375 -0.75 2.328125q-0.75 0.984375 -2.171875 1.53125q-1.421875 0.53125 -3.453125 0.53125zm11.827728 -4.125l0.0625 -2.671875l9.578125 -8.734375l2.5625 0l-6.78125 6.46875l-1.171875 1.0l-4.25 3.9375zm-1.640625 3.984375l0 -21.765625l2.078125 0l0 21.765625l-2.078125 0zm11.9375 0l-6.421875 -8.0l1.34375 -1.625l7.625 9.625l-2.546875 0zm13.81015 0l0 -20.53125l8.859375 0q3.421875 0 5.3125 1.390625q1.90625 1.375 1.90625 3.890625q0 1.671875 -0.78125 2.8125q-0.78125 1.140625 -2.125 1.734375q-1.328125 0.578125 -2.90625 0.578125l0.5 -0.703125q1.96875 0 3.390625 0.609375q1.421875 0.59375 2.203125 1.78125q0.796875 1.1875 0.796875 2.953125q0 2.609375 -1.921875 4.046875q-1.921875 1.4375 -5.796875 1.4375l-9.4375 0zm2.171875 -1.78125l7.234375 0q2.703125 0 4.140625 -0.921875q1.4375 -0.9375 1.4375 -2.953125q0 -2.0 -1.4375 -2.921875q-1.4375 -0.921875 -4.140625 -0.921875l-7.46875 0l0 -1.796875l6.765625 0q2.46875 0 3.828125 -0.9375q1.375 -0.9375 1.375 -2.78125q0 -1.875 -1.375 -2.796875q-1.359375 -0.921875 -3.828125 -0.921875l-6.53125 0l0 16.953125z" fill-rule="nonzero"/><path fill="#cfe2f3" d="m493.36746 12.23622l197.32285 0l0 51.622047l-197.32285 0z" fill-rule="evenodd"/><path stroke="#000000" stroke-width="1.0" stroke-linejoin="round" stroke-linecap="butt" d="m493.36746 12.23622l197.32285 0l0 51.622047l-197.32285 0z" fill-rule="evenodd"/><path fill="#000000" d="m552.35876 48.707245l0 -18.65625l-7.203125 0l0 -1.875l16.59375 0l0 1.875l-7.21875 0l0 18.65625l-2.171875 0zm21.202454 0l0 -3.40625l-0.078125 -0.546875l0 -5.703125q0 -1.953125 -1.109375 -3.0q-1.09375 -1.0625 -3.265625 -1.0625q-1.5 0 -2.84375 0.5q-1.34375 0.484375 -2.28125 1.3125l-0.9375 -1.5625q1.171875 -0.984375 2.8125 -1.53125q1.640625 -0.546875 3.453125 -0.546875q3.0 0 4.625 1.484375q1.625 1.484375 1.625 4.5l0 9.5625l-2.0 0zm-5.296875 0.140625q-1.734375 0 -3.015625 -0.5625q-1.265625 -0.578125 -1.953125 -1.578125q-0.671875 -1.015625 -0.671875 -2.34375q0 -1.203125 0.5625 -2.1875q0.578125 -0.984375 1.875 -1.578125q1.3125 -0.59375 3.515625 -0.59375l5.3125 0l0 1.546875l-5.25 0q-2.234375 0 -3.09375 0.796875q-0.859375 0.78125 -0.859375 1.953125q0 1.328125 1.015625 2.125q1.03125 0.78125 2.875 0.78125q1.765625 0 3.03125 -0.796875q1.28125 -0.8125 1.875 -2.34375l0.46875 1.4375q-0.59375 1.53125 -2.046875 2.4375q-1.453125 0.90625 -3.640625 0.90625zm17.084839 0q-1.90625 0 -3.609375 -0.53125q-1.6875 -0.546875 -2.65625 -1.375l0.9375 -1.640625q0.9375 0.703125 2.40625 1.21875q1.46875 0.515625 3.078125 0.515625q2.203125 0 3.171875 -0.6875q0.96875 -0.6875 0.96875 -1.828125q0 -0.859375 -0.546875 -1.34375q-0.546875 -0.484375 -1.4375 -0.734375q-0.875 -0.25 -1.953125 -0.421875q-1.078125 -0.171875 -2.15625 -0.40625q-1.0625 -0.234375 -1.953125 -0.6875q-0.875 -0.453125 -1.421875 -1.25q-0.546875 -0.796875 -0.546875 -2.109375q0 -1.265625 0.703125 -2.265625q0.71875 -1.0 2.078125 -1.5625q1.359375 -0.578125 3.328125 -0.578125q1.5 0 2.984375 0.40625q1.5 0.390625 2.46875 1.03125l-0.90625 1.671875q-1.03125 -0.703125 -2.203125 -1.0q-1.171875 -0.3125 -2.34375 -0.3125q-2.078125 0 -3.0625 0.71875q-0.984375 0.71875 -0.984375 1.828125q0 0.875 0.53125 1.375q0.546875 0.5 1.4375 0.78125q0.90625 0.28125 1.96875 0.453125q1.078125 0.171875 2.140625 0.421875q1.078125 0.25 1.96875 0.6875q0.890625 0.421875 1.4375 1.203125q0.546875 0.765625 0.546875 2.03125q0 1.34375 -0.75 2.328125q-0.75 0.984375 -2.171875 1.53125q-1.421875 0.53125 -3.453125 0.53125zm11.827698 -4.125l0.0625 -2.671875l9.578125 -8.734375l2.5625 0l-6.78125 6.46875l-1.171875 1.0l-4.25 3.9375zm-1.640625 3.984375l0 -21.765625l2.078125 0l0 21.765625l-2.078125 0zm11.9375 0l-6.421875 -8.0l1.34375 -1.625l7.625 9.625l-2.546875 0zm22.732056 0.171875q-2.328125 0 -4.296875 -0.765625q-1.953125 -0.78125 -3.390625 -2.1875q-1.4375 -1.40625 -2.25 -3.3125q-0.796875 -1.90625 -0.796875 -4.171875q0 -2.25 0.796875 -4.15625q0.8125 -1.90625 2.265625 -3.3125q1.453125 -1.421875 3.40625 -2.1875q1.96875 -0.78125 4.28125 -0.78125q2.234375 0 4.203125 0.75q1.96875 0.75 3.3125 2.234375l-1.375 1.390625q-1.265625 -1.296875 -2.796875 -1.859375q-1.515625 -0.578125 -3.28125 -0.578125q-1.84375 0 -3.4375 0.625q-1.578125 0.625 -2.75 1.796875q-1.171875 1.15625 -1.828125 2.703125q-0.65625 1.53125 -0.65625 3.375q0 1.84375 0.65625 3.390625q0.65625 1.53125 1.828125 2.703125q1.171875 1.15625 2.75 1.78125q1.59375 0.625 3.4375 0.625q1.765625 0 3.28125 -0.578125q1.53125 -0.59375 2.796875 -1.875l1.375 1.375q-1.34375 1.5 -3.3125 2.265625q-1.96875 0.75 -4.21875 0.75z" fill-rule="nonzero"/><path fill="#000000" fill-opacity="0.0" d="m348.063 317.32285l0 -34.70868" fill-rule="evenodd"/><path stroke="#000000" stroke-width="3.0" stroke-linejoin="round" stroke-linecap="butt" d="m348.063 317.32285l0 -16.70868" fill-rule="evenodd"/><path fill="#000000" stroke="#000000" stroke-width="3.0" stroke-linecap="butt" d="m353.0182 300.61417l-4.9552 -13.614288l-4.9552 13.614288z" fill-rule="evenodd"/><path fill="#000000" fill-opacity="0.0" d="m348.063 230.99213l0 -34.708664" fill-rule="evenodd"/><path stroke="#000000" stroke-width="3.0" stroke-linejoin="round" stroke-linecap="butt" d="m348.063 230.99213l0 -16.708664" fill-rule="evenodd"/><path fill="#000000" stroke="#000000" stroke-width="3.0" stroke-linecap="butt" d="m353.0182 214.28346l-4.9552 -13.614288l-4.9552 13.614288z" fill-rule="evenodd"/><path fill="#000000" fill-opacity="0.0" d="m348.063 144.66142l1.3858337 -55.055122" fill-rule="evenodd"/><path stroke="#000000" stroke-width="3.0" stroke-linejoin="round" stroke-linecap="butt" d="m348.063 144.66142l0.9328613 -37.06082" fill-rule="evenodd"/><path fill="#000000" stroke="#000000" stroke-width="3.0" stroke-linecap="butt" d="m353.9495 107.72529l-4.611023 -13.734673l-5.296234 13.485291z" fill-rule="evenodd"/><path fill="#000000" fill-opacity="0.0" d="m347.3701 144.66142l-173.98425 -53.196854" fill-rule="evenodd"/><path stroke="#000000" stroke-width="3.0" stroke-linejoin="round" stroke-linecap="butt" d="m347.3701 144.66142l-156.7709 -47.933754" fill-rule="evenodd"/><path fill="#000000" stroke="#000000" stroke-width="3.0" stroke-linecap="butt" d="m192.04807 91.98902l-14.468201 0.75790405l11.57045 8.719383z" fill-rule="evenodd"/><path fill="#000000" fill-opacity="0.0" d="m348.063 144.66142l165.48035 -52.28347" fill-rule="evenodd"/><path stroke="#000000" stroke-width="3.0" stroke-linejoin="round" stroke-linecap="butt" d="m348.063 144.66142l148.31662 -46.860603" fill-rule="evenodd"/><path fill="#000000" stroke="#000000" stroke-width="3.0" stroke-linecap="butt" d="m497.87247 102.525795l11.488892 -8.826561l-14.474609 -0.6233902z" fill-rule="evenodd"/><path fill="#000000" fill-opacity="0.0" d="m519.08136 187.33858l130.89764 0l0 54.92914l-130.89764 0z" fill-rule="evenodd"/></g></svg>