<svg version="1.1" viewBox="0.0 0.0 597.5826771653543 255.01837270341207" fill="none" stroke="none" stroke-linecap="square" stroke-miterlimit="10" xmlns:xlink="http://www.w3.org/1999/xlink" xmlns="http://www.w3.org/2000/svg"><clipPath id="p.0"><path d="m0 0l597.5827 0l0 255.01837l-597.5827 0l0 -255.01837z" clip-rule="nonzero"/></clipPath><g clip-path="url(#p.0)"><path fill="#000000" fill-opacity="0.0" d="m0 0l597.5827 0l0 255.01837l-597.5827 0z" fill-rule="evenodd"/><path fill="#cfe2f3" d="m24.727034 169.65092l141.85826 0l0 59.527557l-141.85826 0z" fill-rule="evenodd"/><path stroke="#000000" stroke-width="1.0" stroke-linejoin="round" stroke-linecap="butt" d="m24.727034 169.65092l141.85826 0l0 59.527557l-141.85826 0z" fill-rule="evenodd"/><path fill="#000000" d="m37.227036 210.35469l0 -21.453125l1.859375 0l9.8125 16.734375l-0.984375 0l9.71875 -16.734375l1.875 0l0 21.453125l-2.171875 0l0 -18.0625l0.515625 0l-8.953125 15.328125l-1.0625 0l-9.015625 -15.328125l0.578125 0l0 18.0625l-2.171875 0zm35.37056 0.15625q-2.328125 0 -4.1875 -1.0625q-1.84375 -1.0625 -2.921875 -2.90625q-1.078125 -1.859375 -1.078125 -4.25q0 -2.421875 1.078125 -4.25q1.078125 -1.84375 2.90625 -2.890625q1.84375 -1.046875 4.203125 -1.046875q2.390625 0 4.25 1.046875q1.859375 1.046875 2.90625 2.890625q1.0625 1.828125 1.0625 4.25q0 2.390625 -1.0625 4.25q-1.046875 1.84375 -2.921875 2.90625q-1.875 1.0625 -4.234375 1.0625zm0 -1.9375q1.75 0 3.09375 -0.78125q1.359375 -0.78125 2.140625 -2.203125q0.78125 -1.421875 0.78125 -3.296875q0 -1.90625 -0.78125 -3.3125q-0.78125 -1.40625 -2.140625 -2.1875q-1.34375 -0.78125 -3.0625 -0.78125q-1.71875 0 -3.0625 0.78125q-1.34375 0.78125 -2.140625 2.1875q-0.796875 1.40625 -0.796875 3.3125q0 1.875 0.796875 3.296875q0.796875 1.421875 2.140625 2.203125q1.34375 0.78125 3.03125 0.78125zm19.065277 1.9375q-2.296875 0 -4.125 -1.046875q-1.8125 -1.046875 -2.859375 -2.890625q-1.046875 -1.859375 -1.046875 -4.28125q0 -2.453125 1.046875 -4.28125q1.046875 -1.84375 2.859375 -2.875q1.828125 -1.03125 4.125 -1.03125q2.125 0 3.796875 0.953125q1.671875 0.953125 2.65625 2.78125q1.0 1.8125 1.0 4.453125q0 2.609375 -0.984375 4.453125q-0.984375 1.828125 -2.65625 2.796875q-1.65625 0.96875 -3.8125 0.96875zm0.15625 -1.9375q1.71875 0 3.078125 -0.78125q1.375 -0.78125 2.15625 -2.203125q0.78125 -1.421875 0.78125 -3.296875q0 -1.90625 -0.78125 -3.3125q-0.78125 -1.40625 -2.15625 -2.1875q-1.359375 -0.78125 -3.078125 -0.78125q-1.6875 0 -3.03125 0.78125q-1.34375 0.78125 -2.140625 2.1875q-0.796875 1.40625 -0.796875 3.3125q0 1.875 0.796875 3.296875q0.796875 1.421875 2.140625 2.203125q1.34375 0.78125 3.03125 0.78125zm6.078125 1.78125l0 -4.84375l0.203125 -3.25l-0.296875 -3.25l0 -11.40625l2.171875 0l0 22.75l-2.078125 0zm14.988129 0.15625q-2.515625 0 -4.421875 -1.0625q-1.890625 -1.0625 -2.96875 -2.90625q-1.078125 -1.859375 -1.078125 -4.25q0 -2.390625 1.03125 -4.21875q1.03125 -1.84375 2.8125 -2.90625q1.796875 -1.0625 4.03125 -1.0625q2.28125 0 4.03125 1.03125q1.765625 1.03125 2.78125 2.890625q1.015625 1.84375 1.015625 4.265625q0 0.15625 -0.015625 0.328125q-0.015625 0.15625 -0.015625 0.34375l-14.015625 0l0 -1.625l12.84375 0l-0.859375 0.640625q0 -1.734375 -0.75 -3.09375q-0.75 -1.375 -2.046875 -2.140625q-1.28125 -0.765625 -2.96875 -0.765625q-1.640625 0 -2.96875 0.765625q-1.3125 0.765625 -2.046875 2.15625q-0.734375 1.375 -0.734375 3.140625l0 0.34375q0 1.84375 0.8125 3.234375q0.8125 1.390625 2.265625 2.171875q1.453125 0.78125 3.328125 0.78125q1.46875 0 2.734375 -0.515625q1.28125 -0.53125 2.203125 -1.59375l1.21875 1.40625q-1.078125 1.28125 -2.6875 1.96875q-1.609375 0.671875 -3.53125 0.671875zm11.672684 -0.15625l0 -22.75l2.1875 0l0 22.75l-2.1875 0zm18.575394 0l0 -20.546875l0.984375 1.046875l-6.03125 0l0 -1.953125l7.265625 0l0 21.453125l-2.21875 0z" fill-rule="nonzero"/><path fill="#000000" fill-opacity="0.0" d="m90.44357 161.65092l0.56692505 -68.251976" fill-rule="evenodd"/><path stroke="#000000" stroke-width="3.0" stroke-linejoin="round" stroke-linecap="butt" d="m90.44357 161.65092l0.4174118 -50.2526" fill-rule="evenodd"/><path fill="#000000" stroke="#000000" stroke-width="3.0" stroke-linecap="butt" d="m95.81602 111.43948l-4.8419495 -13.654976l-5.0681076 13.572662z" fill-rule="evenodd"/><path fill="#cfe2f3" d="m8.727035 23.08924l171.49606 0l0 62.83464l-171.49606 0z" fill-rule="evenodd"/><path stroke="#000000" stroke-width="1.0" stroke-linejoin="round" stroke-linecap="butt" d="m8.727035 23.08924l171.49606 0l0 62.83464l-171.49606 0z" fill-rule="evenodd"/><path fill="#000000" d="m52.307213 48.54656l0 -15.265625l-5.90625 0l0 -1.5312481l13.59375 0l0 1.5312481l-5.90625 0l0 15.265625l-1.78125 0zm9.814957 0l0 -12.59375l1.640625 0l0 3.421875l-0.171875 -0.59375q0.53125 -1.4375 1.765625 -2.1875q1.25 -0.765625 3.109375 -0.765625l0 1.65625q-0.109375 0 -0.203125 -0.015625q-0.09375 -0.015625 -0.1875 -0.015625q-1.984375 0 -3.125 1.21875q-1.125 1.21875 -1.125 3.4375l0 6.4375l-1.703125 0zm16.386597 0l0 -2.78125l-0.0625 -0.453125l0 -4.65625q0 -1.609375 -0.90625 -2.46875q-0.890625 -0.875 -2.671875 -0.875q-1.21875 0 -2.328125 0.40625q-1.109375 0.40625 -1.875 1.078125l-0.765625 -1.265625q0.953125 -0.8125 2.296875 -1.25q1.34375 -0.453125 2.84375 -0.453125q2.4375 0 3.765625 1.21875q1.34375 1.203125 1.34375 3.671875l0 7.828125l-1.640625 0zm-4.34375 0.125q-1.40625 0 -2.453125 -0.46875q-1.046875 -0.46875 -1.609375 -1.296875q-0.546875 -0.828125 -0.546875 -1.90625q0 -0.984375 0.46875 -1.78125q0.46875 -0.8125 1.53125 -1.296875q1.078125 -0.5 2.875 -0.5l4.34375 0l0 1.265625l-4.296875 0q-1.8125 0 -2.53125 0.65625q-0.703125 0.640625 -0.703125 1.609375q0 1.078125 0.84375 1.734375q0.84375 0.640625 2.34375 0.640625q1.4375 0 2.484375 -0.65625q1.046875 -0.671875 1.53125 -1.921875l0.375 1.1875q-0.46875 1.234375 -1.65625 1.984375q-1.1875 0.75 -3.0 0.75zm10.613083 -0.125l0 -12.59375l1.703125 0l0 12.59375l-1.703125 0zm0.875 -15.390625q-0.53125 0 -0.890625 -0.359375q-0.359375 -0.359375 -0.359375 -0.8593731q0 -0.5 0.359375 -0.84375q0.359375 -0.359375 0.890625 -0.359375q0.53125 0 0.890625 0.34375q0.359375 0.328125 0.359375 0.84375q0 0.5156231 -0.359375 0.8749981q-0.34375 0.359375 -0.890625 0.359375zm12.018478 2.671875q1.53125 0 2.6875 0.59375q1.171875 0.578125 1.828125 1.78125q0.65625 1.203125 0.65625 3.03125l0 7.3125l-1.703125 0l0 -7.15625q0 -1.984375 -1.0 -3.0q-0.984375 -1.03125 -2.78125 -1.03125q-1.34375 0 -2.34375 0.546875q-1.0 0.53125 -1.546875 1.5625q-0.53125 1.015625 -0.53125 2.453125l0 6.625l-1.703125 0l0 -12.59375l1.640625 0l0 3.453125l-0.265625 -0.65625q0.59375 -1.359375 1.90625 -2.140625q1.328125 -0.78125 3.15625 -0.78125zm21.215057 12.84375q-1.828125 0 -3.28125 -0.828125q-1.453125 -0.828125 -2.296875 -2.28125q-0.828125 -1.453125 -0.828125 -3.328125q0 -1.890625 0.828125 -3.328125q0.84375 -1.453125 2.28125 -2.265625q1.4375 -0.8125 3.296875 -0.8125q1.875 0 3.3125 0.8125q1.453125 0.8125 2.28125 2.265625q0.828125 1.4375 0.828125 3.328125q0 1.875 -0.828125 3.328125q-0.828125 1.453125 -2.296875 2.28125q-1.453125 0.828125 -3.296875 0.828125zm0 -1.515625q1.359375 0 2.40625 -0.609375q1.0625 -0.609375 1.671875 -1.71875q0.625 -1.125 0.625 -2.59375q0 -1.484375 -0.625 -2.59375q-0.609375 -1.109375 -1.671875 -1.71875q-1.046875 -0.609375 -2.390625 -0.609375q-1.34375 0 -2.40625 0.609375q-1.046875 0.609375 -1.671875 1.71875q-0.625 1.109375 -0.625 2.59375q0 1.46875 0.625 2.59375q0.625 1.109375 1.671875 1.71875q1.0625 0.609375 2.390625 0.609375zm16.344826 -11.328125q1.53125 0 2.6875 0.59375q1.171875 0.578125 1.828125 1.78125q0.65625 1.203125 0.65625 3.03125l0 7.3125l-1.703125 0l0 -7.15625q0 -1.984375 -1.0 -3.0q-0.984375 -1.03125 -2.78125 -1.03125q-1.34375 0 -2.34375 0.546875q-1.0 0.53125 -1.546875 1.5625q-0.53125 1.015625 -0.53125 2.453125l0 6.625l-1.703125 0l0 -12.59375l1.640625 0l0 3.453125l-0.265625 -0.65625q0.59375 -1.359375 1.90625 -2.140625q1.328125 -0.78125 3.15625 -0.78125z" fill-rule="nonzero"/><path fill="#000000" d="m29.764898 77.67156q-1.5625 0 -2.953125 -0.4375q-1.390625 -0.453125 -2.1875 -1.125l0.765625 -1.34375q0.765625 0.578125 1.96875 1.0q1.203125 0.40625 2.515625 0.40625q1.8125 0 2.593752 -0.5625q0.796875 -0.5625 0.796875 -1.5q0 -0.6875 -0.453125 -1.078125q-0.4375 -0.40625 -1.1562519 -0.609375q-0.71875 -0.203125 -1.609375 -0.34375q-0.890625 -0.140625 -1.765625 -0.328125q-0.875 -0.203125 -1.59375 -0.578125q-0.71875 -0.375 -1.171875 -1.015625q-0.4375 -0.65625 -0.4375 -1.734375q0 -1.03125 0.578125 -1.84375q0.578125 -0.8125 1.6875 -1.28125q1.125 -0.46875 2.734375 -0.46875q1.21875 0 2.437502 0.328125q1.234375 0.3125 2.015625 0.84375l-0.734375 1.375q-0.84375 -0.578125 -1.8125019 -0.828125q-0.953125 -0.25 -1.90625 -0.25q-1.703125 0 -2.515625 0.59375q-0.796875 0.578125 -0.796875 1.484375q0 0.71875 0.4375 1.140625q0.4375 0.40625 1.171875 0.640625q0.734375 0.21875 1.609375 0.359375q0.875 0.140625 1.75 0.34375q0.8750019 0.203125 1.6093769 0.5625q0.734375 0.34375 1.171875 0.984375q0.453125 0.625 0.453125 1.65625q0 1.109375 -0.609375 1.921875q-0.609375 0.796875 -1.78125 1.25q-1.1562519 0.4375 -2.812502 0.4375zm8.321337 -0.125l0 -12.59375l1.703125 0l0 12.59375l-1.703125 0zm0.875 -15.390629q-0.53125 0 -0.890625 -0.359375q-0.359375 -0.359375 -0.359375 -0.859375q0 -0.5 0.359375 -0.84375q0.359375 -0.359375 0.890625 -0.359375q0.53125 0 0.890625 0.34375q0.359375 0.328125 0.359375 0.84375q0 0.515625 -0.359375 0.875q-0.34375 0.359375 -0.890625 0.359375zm21.330978 2.6718788q1.53125 0 2.671875 0.59375q1.140625 0.578125 1.765625 1.78125q0.640625 1.203125 0.640625 3.03125l0 7.3125l-1.703125 0l0 -7.15625q0 -1.984375 -0.953125 -3.0q-0.9375 -1.03125 -2.671875 -1.03125q-1.296875 0 -2.25 0.546875q-0.9375 0.53125 -1.453125 1.5625q-0.515625 1.015625 -0.515625 2.453125l0 6.625l-1.703125 0l0 -7.15625q0 -1.984375 -0.96875 -3.0q-0.953125 -1.03125 -2.6875 -1.03125q-1.265625 0 -2.234375 0.546875q-0.953125 0.53125 -1.46875 1.5625q-0.515625 1.015625 -0.515625 2.453125l0 6.625l-1.703125 0l0 -12.59375l1.640625 0l0 3.40625l-0.265625 -0.609375q0.5625 -1.359375 1.84375 -2.140625q1.296875 -0.78125 3.046875 -0.78125q1.84375 0 3.140625 0.921875q1.296875 0.921875 1.6875 2.765625l-0.671875 -0.25q0.546875 -1.546875 1.953125 -2.484375q1.40625 -0.953125 3.375 -0.953125zm9.713928 12.71875l0 -12.59375l1.703125 0l0 12.59375l-1.703125 0zm0.875 -15.390629q-0.53125 0 -0.890625 -0.359375q-0.359375 -0.359375 -0.359375 -0.859375q0 -0.5 0.359375 -0.84375q0.359375 -0.359375 0.890625 -0.359375q0.53125 0 0.890625 0.34375q0.359375 0.328125 0.359375 0.84375q0 0.515625 -0.359375 0.875q-0.34375 0.359375 -0.890625 0.359375zm5.5809784 15.390629l0 -17.812504l1.703125 0l0 17.812504l-1.703125 0zm14.346603 0l0 -2.78125l-0.0625 -0.453125l0 -4.65625q0 -1.609375 -0.90625 -2.46875q-0.890625 -0.875 -2.671875 -0.875q-1.21875 0 -2.328125 0.40625q-1.109375 0.40625 -1.875 1.078125l-0.765625 -1.265625q0.953125 -0.8125 2.296875 -1.25q1.34375 -0.453125 2.84375 -0.453125q2.4375 0 3.765625 1.21875q1.34375 1.203125 1.34375 3.671875l0 7.828125l-1.640625 0zm-4.34375 0.125q-1.40625 0 -2.453125 -0.46875q-1.046875 -0.46875 -1.609375 -1.296875q-0.546875 -0.828125 -0.546875 -1.90625q0 -0.984375 0.46875 -1.78125q0.46875 -0.8125 1.53125 -1.296875q1.078125 -0.5 2.875 -0.5l4.34375 0l0 1.265625l-4.296875 0q-1.8125 0 -2.53125 0.65625q-0.703125 0.640625 -0.703125 1.609375q0 1.078125 0.84375 1.734375q0.84375 0.640625 2.34375 0.640625q1.4375 0 2.484375 -0.65625q1.046875 -0.671875 1.53125 -1.921875l0.375 1.1875q-0.46875 1.234375 -1.65625 1.984375q-1.1875 0.75 -3.0 0.75zm10.613083 -0.125l0 -12.59375l1.640625 0l0 3.421875l-0.171875 -0.59375q0.53125 -1.4375 1.765625 -2.1875q1.25 -0.765625 3.109375 -0.765625l0 1.65625q-0.109375 0 -0.203125 -0.015625q-0.09375 -0.015625 -0.1875 -0.015625q-1.984375 0 -3.125 1.21875q-1.125 1.21875 -1.125 3.4375l0 6.4375l-1.703125 0zm20.927582 0.125q-1.796875 0 -3.234375 -0.8125q-1.421875 -0.828125 -2.234375 -2.28125q-0.8125 -1.453125 -0.8125 -3.34375q0 -1.921875 0.8125 -3.359375q0.8125 -1.4375 2.234375 -2.234375q1.4375 -0.8125 3.234375 -0.8125q1.65625 0 2.953125 0.75q1.3125 0.734375 2.09375 2.171875q0.78125 1.421875 0.78125 3.484375q0 2.046875 -0.765625 3.484375q-0.765625 1.4375 -2.078125 2.203125q-1.296875 0.75 -2.984375 0.75zm0.125 -1.515625q1.34375 0 2.40625 -0.609375q1.0625 -0.609375 1.671875 -1.71875q0.625 -1.125 0.625 -2.59375q0 -1.484375 -0.625 -2.59375q-0.609375 -1.109375 -1.671875 -1.71875q-1.0625 -0.609375 -2.40625 -0.609375q-1.328125 0 -2.390625 0.609375q-1.046875 0.609375 -1.671875 1.71875q-0.625 1.109375 -0.625 2.59375q0 1.46875 0.625 2.59375q0.625 1.109375 1.671875 1.71875q1.0625 0.609375 2.390625 0.609375zm4.75 1.390625l0 -3.796875l0.171875 -2.546875l-0.25 -2.53125l0 -8.937504l1.703125 0l0 17.812504l-1.625 0zm14.271965 0l0 -2.78125l-0.0625 -0.453125l0 -4.65625q0 -1.609375 -0.90626526 -2.46875q-0.890625 -0.875 -2.671875 -0.875q-1.21875 0 -2.328125 0.40625q-1.109375 0.40625 -1.875 1.078125l-0.765625 -1.265625q0.953125 -0.8125 2.296875 -1.25q1.34375 -0.453125 2.84375 -0.453125q2.4375 0 3.7656403 1.21875q1.34375 1.203125 1.34375 3.671875l0 7.828125l-1.640625 0zm-4.3437653 0.125q-1.40625 0 -2.453125 -0.46875q-1.046875 -0.46875 -1.609375 -1.296875q-0.546875 -0.828125 -0.546875 -1.90625q0 -0.984375 0.46875 -1.78125q0.46875 -0.8125 1.53125 -1.296875q1.078125 -0.5 2.875 -0.5l4.3437653 0l0 1.265625l-4.2968903 0q-1.8125 0 -2.53125 0.65625q-0.703125 0.640625 -0.703125 1.609375q0 1.078125 0.84375 1.734375q0.84375 0.640625 2.34375 0.640625q1.4375 0 2.484375 -0.65625q1.046875 -0.671875 1.5312653 -1.921875l0.375 1.1875q-0.46875 1.234375 -1.6562653 1.984375q-1.1875 0.75 -3.0 0.75zm14.597458 0q-1.78125 0 -2.75 -0.953125q-0.953125 -0.96875 -0.953125 -2.71875l0 -11.843754l1.71875 0l0 11.750004q0 1.09375 0.5625 1.703125q0.5625 0.59375 1.609375 0.59375q1.140625 0 1.875 -0.640625l0.609375 1.21875q-0.515625 0.453125 -1.21875 0.671875q-0.703125 0.21875 -1.453125 0.21875zm-5.953125 -11.3125l0 -1.40625l7.796875 0l0 1.40625l-7.796875 0zm19.603363 11.1875l0 -2.78125l-0.0625 -0.453125l0 -4.65625q0 -1.609375 -0.90625 -2.46875q-0.890625 -0.875 -2.671875 -0.875q-1.21875 0 -2.328125 0.40625q-1.109375 0.40625 -1.875 1.078125l-0.765625 -1.265625q0.953125 -0.8125 2.296875 -1.25q1.34375 -0.453125 2.84375 -0.453125q2.4375 0 3.765625 1.21875q1.34375 1.203125 1.34375 3.671875l0 7.828125l-1.640625 0zm-4.34375 0.125q-1.40625 0 -2.453125 -0.46875q-1.046875 -0.46875 -1.609375 -1.296875q-0.546875 -0.828125 -0.546875 -1.90625q0 -0.984375 0.46875 -1.78125q0.46875 -0.8125 1.53125 -1.296875q1.078125 -0.5 2.875 -0.5l4.34375 0l0 1.265625l-4.296875 0q-1.8125 0 -2.53125 0.65625q-0.703125 0.640625 -0.703125 1.609375q0 1.078125 0.84375 1.734375q0.84375 0.640625 2.34375 0.640625q1.4375 0 2.484375 -0.65625q1.046875 -0.671875 1.53125 -1.921875l0.375 1.1875q-0.46875 1.234375 -1.65625 1.984375q-1.1875 0.75 -3.0 0.75z" fill-rule="nonzero"/><path fill="#cfe2f3" d="m425.83603 169.38846l147.46457 0l0 59.527557l-147.46457 0z" fill-rule="evenodd"/><path stroke="#000000" stroke-width="1.0" stroke-linejoin="round" stroke-linecap="butt" d="m425.83603 169.38846l147.46457 0l0 59.527557l-147.46457 0z" fill-rule="evenodd"/><path fill="#000000" d="m438.33603 210.09222l0 -21.453125l1.859375 0l9.8125 16.734375l-0.984375 0l9.71875 -16.734375l1.875 0l0 21.453125l-2.171875 0l0 -18.0625l0.515625 0l-8.953125 15.328125l-1.0625 0l-9.015625 -15.328125l0.578125 0l0 18.0625l-2.171875 0zm35.370575 0.15625q-2.328125 0 -4.1875 -1.0625q-1.84375 -1.0625 -2.921875 -2.90625q-1.078125 -1.859375 -1.078125 -4.25q0 -2.421875 1.078125 -4.25q1.078125 -1.84375 2.90625 -2.890625q1.84375 -1.046875 4.203125 -1.046875q2.390625 0 4.25 1.046875q1.859375 1.046875 2.90625 2.890625q1.0625 1.828125 1.0625 4.25q0 2.390625 -1.0625 4.25q-1.046875 1.84375 -2.921875 2.90625q-1.875 1.0625 -4.234375 1.0625zm0 -1.9375q1.75 0 3.09375 -0.78125q1.359375 -0.78125 2.140625 -2.203125q0.78125 -1.421875 0.78125 -3.296875q0 -1.90625 -0.78125 -3.3125q-0.78125 -1.40625 -2.140625 -2.1875q-1.34375 -0.78125 -3.0625 -0.78125q-1.71875 0 -3.0625 0.78125q-1.34375 0.78125 -2.140625 2.1875q-0.796875 1.40625 -0.796875 3.3125q0 1.875 0.796875 3.296875q0.796875 1.421875 2.140625 2.203125q1.34375 0.78125 3.03125 0.78125zm19.065277 1.9375q-2.296875 0 -4.125 -1.046875q-1.8125 -1.046875 -2.859375 -2.890625q-1.046875 -1.859375 -1.046875 -4.28125q0 -2.453125 1.046875 -4.28125q1.046875 -1.84375 2.859375 -2.875q1.828125 -1.03125 4.125 -1.03125q2.125 0 3.796875 0.953125q1.671875 0.953125 2.65625 2.78125q1.0 1.8125 1.0 4.453125q0 2.609375 -0.984375 4.453125q-0.984375 1.828125 -2.65625 2.796875q-1.65625 0.96875 -3.8125 0.96875zm0.15625 -1.9375q1.71875 0 3.078125 -0.78125q1.375 -0.78125 2.15625 -2.203125q0.78125 -1.421875 0.78125 -3.296875q0 -1.90625 -0.78125 -3.3125q-0.78125 -1.40625 -2.15625 -2.1875q-1.359375 -0.78125 -3.078125 -0.78125q-1.6875 0 -3.03125 0.78125q-1.34375 0.78125 -2.140625 2.1875q-0.796875 1.40625 -0.796875 3.3125q0 1.875 0.796875 3.296875q0.796875 1.421875 2.140625 2.203125q1.34375 0.78125 3.03125 0.78125zm6.078125 1.78125l0 -4.84375l0.203125 -3.25l-0.296875 -3.25l0 -11.40625l2.171875 0l0 22.75l-2.078125 0zm14.988129 0.15625q-2.515625 0 -4.421875 -1.0625q-1.890625 -1.0625 -2.96875 -2.90625q-1.078125 -1.859375 -1.078125 -4.25q0 -2.390625 1.03125 -4.21875q1.03125 -1.84375 2.8125 -2.90625q1.796875 -1.0625 4.03125 -1.0625q2.28125 0 4.03125 1.03125q1.765625 1.03125 2.78125 2.890625q1.015625 1.84375 1.015625 4.265625q0 0.15625 -0.015625 0.328125q-0.015625 0.15625 -0.015625 0.34375l-14.015625 0l0 -1.625l12.84375 0l-0.859375 0.640625q0 -1.734375 -0.75 -3.09375q-0.75 -1.375 -2.046875 -2.140625q-1.28125 -0.765625 -2.96875 -0.765625q-1.640625 0 -2.96875 0.765625q-1.3125 0.765625 -2.046875 2.15625q-0.734375 1.375 -0.734375 3.140625l0 0.34375q0 1.84375 0.8125 3.234375q0.8125 1.390625 2.265625 2.171875q1.453125 0.78125 3.328125 0.78125q1.46875 0 2.734375 -0.515625q1.28125 -0.53125 2.203125 -1.59375l1.21875 1.40625q-1.078125 1.28125 -2.6875 1.96875q-1.609375 0.671875 -3.53125 0.671875zm11.672668 -0.15625l0 -22.75l2.1875 0l0 22.75l-2.1875 0zm14.450378 0l0 -1.5625l8.90625 -8.734375q1.234375 -1.203125 1.84375 -2.109375q0.609375 -0.90625 0.828125 -1.703125q0.21875 -0.796875 0.21875 -1.5q0 -1.859375 -1.28125 -2.9375q-1.265625 -1.078125 -3.75 -1.078125q-1.90625 0 -3.359375 0.59375q-1.453125 0.578125 -2.5 1.796875l-1.5625 -1.34375q1.265625 -1.46875 3.21875 -2.265625q1.96875 -0.796875 4.390625 -0.796875q2.171875 0 3.765625 0.6875q1.59375 0.6875 2.46875 2.015625q0.875 1.3125 0.875 3.09375q0 1.03125 -0.296875 2.046875q-0.28125 1.015625 -1.03125 2.140625q-0.75 1.109375 -2.203125 2.515625l-8.171875 8.03125l-0.625 -0.859375l13.3125 0l0 1.96875l-15.046875 0z" fill-rule="nonzero"/><path fill="#000000" fill-opacity="0.0" d="m498.43045 161.91339l0.56692505 -68.251976" fill-rule="evenodd"/><path stroke="#000000" stroke-width="3.0" stroke-linejoin="round" stroke-linecap="butt" d="m498.43045 161.91339l0.41738892 -50.2526" fill-rule="evenodd"/><path fill="#000000" stroke="#000000" stroke-width="3.0" stroke-linecap="butt" d="m503.8029 111.70196l-4.8419495 -13.6549835l-5.0680847 13.572662z" fill-rule="evenodd"/><path fill="#cfe2f3" d="m401.0315 26.133858l188.97638 0l0 59.527557l-188.97638 0z" fill-rule="evenodd"/><path stroke="#000000" stroke-width="1.0" stroke-linejoin="round" stroke-linecap="butt" d="m401.0315 26.133858l188.97638 0l0 59.527557l-188.97638 0z" fill-rule="evenodd"/><path fill="#000000" d="m423.03992 49.937637l0 -15.265625l-5.90625 0l0 -1.53125l13.59375 0l0 1.53125l-5.90625 0l0 15.265625l-1.78125 0zm9.814972 0l0 -12.59375l1.640625 0l0 3.421875l-0.171875 -0.59375q0.53125 -1.4375 1.765625 -2.1875q1.25 -0.765625 3.109375 -0.765625l0 1.65625q-0.109375 0 -0.203125 -0.015625q-0.09375 -0.015625 -0.1875 -0.015625q-1.984375 0 -3.125 1.21875q-1.125 1.21875 -1.125 3.4375l0 6.4375l-1.703125 0zm16.386597 0l0 -2.78125l-0.0625 -0.453125l0 -4.65625q0 -1.609375 -0.90625 -2.46875q-0.890625 -0.875 -2.671875 -0.875q-1.21875 0 -2.328125 0.40625q-1.109375 0.40625 -1.875 1.078125l-0.765625 -1.265625q0.953125 -0.8125 2.296875 -1.25q1.34375 -0.453125 2.84375 -0.453125q2.4375 0 3.765625 1.21875q1.34375 1.203125 1.34375 3.671875l0 7.828125l-1.640625 0zm-4.34375 0.125q-1.40625 0 -2.453125 -0.46875q-1.046875 -0.46875 -1.609375 -1.296875q-0.546875 -0.828125 -0.546875 -1.90625q0 -0.984375 0.46875 -1.78125q0.46875 -0.8125 1.53125 -1.296875q1.078125 -0.5 2.875 -0.5l4.34375 0l0 1.265625l-4.296875 0q-1.8125 0 -2.53125 0.65625q-0.703125 0.640625 -0.703125 1.609375q0 1.078125 0.84375 1.734375q0.84375 0.640625 2.34375 0.640625q1.4375 0 2.484375 -0.65625q1.046875 -0.671875 1.53125 -1.921875l0.375 1.1875q-0.46875 1.234375 -1.65625 1.984375q-1.1875 0.75 -3.0 0.75zm10.613068 -0.125l0 -12.59375l1.703125 0l0 12.59375l-1.703125 0zm0.875 -15.390625q-0.53125 0 -0.890625 -0.359375q-0.359375 -0.359375 -0.359375 -0.859375q0 -0.5 0.359375 -0.84375q0.359375 -0.359375 0.890625 -0.359375q0.53125 0 0.890625 0.34375q0.359375 0.328125 0.359375 0.84375q0 0.515625 -0.359375 0.875q-0.34375 0.359375 -0.890625 0.359375zm12.018494 2.671875q1.53125 0 2.6875 0.59375q1.171875 0.578125 1.828125 1.78125q0.65625 1.203125 0.65625 3.03125l0 7.3125l-1.703125 0l0 -7.15625q0 -1.984375 -1.0 -3.0q-0.984375 -1.03125 -2.78125 -1.03125q-1.34375 0 -2.34375 0.546875q-1.0 0.53125 -1.546875 1.5625q-0.53125 1.015625 -0.53125 2.453125l0 6.625l-1.703125 0l0 -12.59375l1.640625 0l0 3.453125l-0.265625 -0.65625q0.59375 -1.359375 1.90625 -2.140625q1.328125 -0.78125 3.15625 -0.78125zm21.215057 12.84375q-1.828125 0 -3.28125 -0.828125q-1.453125 -0.828125 -2.296875 -2.28125q-0.828125 -1.453125 -0.828125 -3.328125q0 -1.890625 0.828125 -3.328125q0.84375 -1.453125 2.28125 -2.265625q1.4375 -0.8125 3.296875 -0.8125q1.875 0 3.3125 0.8125q1.453125 0.8125 2.28125 2.265625q0.828125 1.4375 0.828125 3.328125q0 1.875 -0.828125 3.328125q-0.828125 1.453125 -2.296875 2.28125q-1.453125 0.828125 -3.296875 0.828125zm0 -1.515625q1.359375 0 2.40625 -0.609375q1.0625 -0.609375 1.671875 -1.71875q0.625 -1.125 0.625 -2.59375q0 -1.484375 -0.625 -2.59375q-0.609375 -1.109375 -1.671875 -1.71875q-1.046875 -0.609375 -2.390625 -0.609375q-1.34375 0 -2.40625 0.609375q-1.046875 0.609375 -1.671875 1.71875q-0.625 1.109375 -0.625 2.59375q0 1.46875 0.625 2.59375q0.625 1.109375 1.671875 1.71875q1.0625 0.609375 2.390625 0.609375zm16.344818 -11.328125q1.53125 0 2.6875 0.59375q1.171875 0.578125 1.828125 1.78125q0.65625 1.203125 0.65625 3.03125l0 7.3125l-1.703125 0l0 -7.15625q0 -1.984375 -1.0 -3.0q-0.984375 -1.03125 -2.78125 -1.03125q-1.34375 0 -2.34375 0.546875q-1.0 0.53125 -1.546875 1.5625q-0.53125 1.015625 -0.53125 2.453125l0 6.625l-1.703125 0l0 -12.59375l1.640625 0l0 3.453125l-0.265625 -0.65625q0.59375 -1.359375 1.90625 -2.140625q1.328125 -0.78125 3.15625 -0.78125zm21.090088 12.84375q-1.796875 0 -3.234375 -0.8125q-1.421875 -0.828125 -2.234375 -2.28125q-0.8125 -1.453125 -0.8125 -3.34375q0 -1.921875 0.8125 -3.359375q0.8125 -1.4375 2.234375 -2.234375q1.4375 -0.8125 3.234375 -0.8125q1.65625 0 2.953125 0.75q1.3125 0.734375 2.09375 2.171875q0.78125 1.421875 0.78125 3.484375q0 2.046875 -0.765625 3.484375q-0.765625 1.4375 -2.078125 2.203125q-1.296875 0.75 -2.984375 0.75zm0.125 -1.515625q1.34375 0 2.40625 -0.609375q1.0625 -0.609375 1.671875 -1.71875q0.625 -1.125 0.625 -2.59375q0 -1.484375 -0.625 -2.59375q-0.609375 -1.109375 -1.671875 -1.71875q-1.0625 -0.609375 -2.40625 -0.609375q-1.328125 0 -2.390625 0.609375q-1.046875 0.609375 -1.671875 1.71875q-0.625 1.109375 -0.625 2.59375q0 1.46875 0.625 2.59375q0.625 1.109375 1.671875 1.71875q1.0625 0.609375 2.390625 0.609375zm4.75 1.390625l0 -3.796875l0.171875 -2.546875l-0.25 -2.53125l0 -8.9375l1.703125 0l0 17.8125l-1.625 0zm14.271912 0l0 -2.78125l-0.0625 -0.453125l0 -4.65625q0 -1.609375 -0.90625 -2.46875q-0.890625 -0.875 -2.671875 -0.875q-1.21875 0 -2.328125 0.40625q-1.109375 0.40625 -1.875 1.078125l-0.765625 -1.265625q0.953125 -0.8125 2.296875 -1.25q1.34375 -0.453125 2.84375 -0.453125q2.4375 0 3.765625 1.21875q1.34375 1.203125 1.34375 3.671875l0 7.828125l-1.640625 0zm-4.34375 0.125q-1.40625 0 -2.453125 -0.46875q-1.046875 -0.46875 -1.609375 -1.296875q-0.546875 -0.828125 -0.546875 -1.90625q0 -0.984375 0.46875 -1.78125q0.46875 -0.8125 1.53125 -1.296875q1.078125 -0.5 2.875 -0.5l4.34375 0l0 1.265625l-4.296875 0q-1.8125 0 -2.53125 0.65625q-0.703125 0.640625 -0.703125 1.609375q0 1.078125 0.84375 1.734375q0.84375 0.640625 2.34375 0.640625q1.4375 0 2.484375 -0.65625q1.046875 -0.671875 1.53125 -1.921875l0.375 1.1875q-0.46875 1.234375 -1.65625 1.984375q-1.1875 0.75 -3.0 0.75zm14.597473 0q-1.78125 0 -2.75 -0.953125q-0.953125 -0.96875 -0.953125 -2.71875l0 -11.84375l1.71875 0l0 11.75q0 1.09375 0.5625 1.703125q0.5625 0.59375 1.609375 0.59375q1.140625 0 1.875 -0.640625l0.609375 1.21875q-0.515625 0.453125 -1.21875 0.671875q-0.703125 0.21875 -1.453125 0.21875zm-5.953125 -11.3125l0 -1.40625l7.796875 0l0 1.40625l-7.796875 0zm19.603333 11.1875l0 -2.78125l-0.0625 -0.453125l0 -4.65625q0 -1.609375 -0.90625 -2.46875q-0.890625 -0.875 -2.671875 -0.875q-1.21875 0 -2.328125 0.40625q-1.109375 0.40625 -1.875 1.078125l-0.765625 -1.265625q0.953125 -0.8125 2.296875 -1.25q1.34375 -0.453125 2.84375 -0.453125q2.4375 0 3.765625 1.21875q1.34375 1.203125 1.34375 3.671875l0 7.828125l-1.640625 0zm-4.34375 0.125q-1.40625 0 -2.453125 -0.46875q-1.046875 -0.46875 -1.609375 -1.296875q-0.546875 -0.828125 -0.546875 -1.90625q0 -0.984375 0.46875 -1.78125q0.46875 -0.8125 1.53125 -1.296875q1.078125 -0.5 2.875 -0.5l4.34375 0l0 1.265625l-4.296875 0q-1.8125 0 -2.53125 0.65625q-0.703125 0.640625 -0.703125 1.609375q0 1.078125 0.84375 1.734375q0.84375 0.640625 2.34375 0.640625q1.4375 0 2.484375 -0.65625q1.046875 -0.671875 1.53125 -1.921875l0.375 1.1875q-0.46875 1.234375 -1.65625 1.984375q-1.1875 0.75 -3.0 0.75z" fill-rule="nonzero"/><path fill="#000000" d="m442.4355 79.06264q-1.828125 0 -3.28125 -0.828125q-1.453125 -0.828125 -2.296875 -2.28125q-0.828125 -1.453125 -0.828125 -3.328125q0 -1.890625 0.828125 -3.328125q0.84375 -1.453125 2.28125 -2.265625q1.4375 -0.8125 3.296875 -0.8125q1.875 0 3.3125 0.8125q1.453125 0.8125 2.28125 2.265625q0.828125 1.4375 0.828125 3.328125q0 1.875 -0.828125 3.328125q-0.828125 1.453125 -2.296875 2.28125q-1.453125 0.828125 -3.296875 0.828125zm0 -1.515625q1.359375 0 2.40625 -0.609375q1.0625 -0.609375 1.671875 -1.71875q0.625 -1.125 0.625 -2.59375q0 -1.484375 -0.625 -2.59375q-0.609375 -1.109375 -1.671875 -1.71875q-1.046875 -0.609375 -2.390625 -0.609375q-1.34375 0 -2.40625 0.609375q-1.046875 0.609375 -1.671875 1.71875q-0.625 1.109375 -0.625 2.59375q0 1.46875 0.625 2.59375q0.625 1.109375 1.671875 1.71875q1.0625 0.609375 2.390625 0.609375zm10.188599 1.390625l0 -14.1875q0 -1.671875 0.984375 -2.703125q0.984375 -1.03125 2.84375 -1.03125q0.71875 0 1.390625 0.1875q0.671875 0.1875 1.125 0.59375l-0.578125 1.28125q-0.359375 -0.3125 -0.84375 -0.46875q-0.46875 -0.15625 -1.03125 -0.15625q-1.078125 0 -1.65625 0.609375q-0.578125 0.59375 -0.578125 1.765625l0 1.921875l0.0625 0.78125l0 11.40625l-1.71875 0zm-2.25 -11.1875l0 -1.40625l7.796875 0l0 1.40625l-7.796875 0zm16.3927 11.1875l0 -12.59375l1.703125 0l0 12.59375l-1.703125 0zm0.875 -15.390625q-0.53125 0 -0.890625 -0.359375q-0.359375 -0.359375 -0.359375 -0.859375q0 -0.5 0.359375 -0.84375q0.359375 -0.359375 0.890625 -0.359375q0.53125 0 0.890625 0.34375q0.359375 0.328125 0.359375 0.84375q0 0.515625 -0.359375 0.875q-0.34375 0.359375 -0.890625 0.359375zm12.018463 2.671875q1.53125 0 2.6875 0.59375q1.171875 0.578125 1.828125 1.78125q0.65625 1.203125 0.65625 3.03125l0 7.3125l-1.703125 0l0 -7.15625q0 -1.984375 -1.0 -3.0q-0.984375 -1.03125 -2.78125 -1.03125q-1.34375 0 -2.34375 0.546875q-1.0 0.53125 -1.546875 1.5625q-0.53125 1.015625 -0.53125 2.453125l0 6.625l-1.703125 0l0 -12.59375l1.640625 0l0 3.453125l-0.265625 -0.65625q0.59375 -1.359375 1.90625 -2.140625q1.328125 -0.78125 3.15625 -0.78125zm13.7708435 12.84375q-1.78125 0 -2.75 -0.953125q-0.953125 -0.96875 -0.953125 -2.71875l0 -11.84375l1.71875 0l0 11.75q0 1.09375 0.5625 1.703125q0.5625 0.59375 1.609375 0.59375q1.140625 0 1.875 -0.640625l0.609375 1.21875q-0.515625 0.453125 -1.21875 0.671875q-0.703125 0.21875 -1.453125 0.21875zm-5.953125 -11.3125l0 -1.40625l7.796875 0l0 1.40625l-7.796875 0zm16.616089 11.3125q-1.96875 0 -3.46875 -0.828125q-1.484375 -0.828125 -2.328125 -2.28125q-0.828125 -1.453125 -0.828125 -3.328125q0 -1.875 0.796875 -3.3125q0.8125 -1.4375 2.203125 -2.265625q1.40625 -0.828125 3.15625 -0.828125q1.78125 0 3.15625 0.8125q1.390625 0.796875 2.171875 2.25q0.796875 1.453125 0.796875 3.34375q0 0.125 -0.015625 0.265625q0 0.125 0 0.265625l-10.96875 0l0 -1.28125l10.046875 0l-0.671875 0.515625q0 -1.375 -0.59375 -2.4375q-0.578125 -1.078125 -1.59375 -1.671875q-1.0 -0.59375 -2.328125 -0.59375q-1.296875 0 -2.328125 0.59375q-1.03125 0.59375 -1.609375 1.6875q-0.5625 1.078125 -0.5625 2.46875l0 0.265625q0 1.4375 0.625 2.53125q0.640625 1.09375 1.78125 1.703125q1.140625 0.609375 2.609375 0.609375q1.140625 0 2.140625 -0.40625q1.0 -0.40625 1.71875 -1.25l0.953125 1.109375q-0.828125 1.0 -2.09375 1.53125q-1.265625 0.53125 -2.765625 0.53125zm9.136597 -0.125l0 -12.59375l1.640625 0l0 3.421875l-0.171875 -0.59375q0.53125 -1.4375 1.765625 -2.1875q1.25 -0.765625 3.109375 -0.765625l0 1.65625q-0.109375 0 -0.203125 -0.015625q-0.09375 -0.015625 -0.1875 -0.015625q-1.984375 0 -3.125 1.21875q-1.125 1.21875 -1.125 3.4375l0 6.4375l-1.703125 0zm14.671326 0.125q-1.96875 0 -3.46875 -0.828125q-1.484375 -0.828125 -2.328125 -2.28125q-0.828125 -1.453125 -0.828125 -3.328125q0 -1.875 0.796875 -3.3125q0.8125 -1.4375 2.203125 -2.265625q1.40625 -0.828125 3.15625 -0.828125q1.78125 0 3.15625 0.8125q1.390625 0.796875 2.171875 2.25q0.796875 1.453125 0.796875 3.34375q0 0.125 -0.015625 0.265625q0 0.125 0 0.265625l-10.96875 0l0 -1.28125l10.046875 0l-0.671875 0.515625q0 -1.375 -0.59375 -2.4375q-0.578125 -1.078125 -1.59375 -1.671875q-1.0 -0.59375 -2.328125 -0.59375q-1.296875 0 -2.328125 0.59375q-1.03125 0.59375 -1.609375 1.6875q-0.5625 1.078125 -0.5625 2.46875l0 0.265625q0 1.4375 0.625 2.53125q0.640625 1.09375 1.78125 1.703125q1.140625 0.609375 2.609375 0.609375q1.140625 0 2.140625 -0.40625q1.0 -0.40625 1.71875 -1.25l0.953125 1.109375q-0.828125 1.0 -2.09375 1.53125q-1.265625 0.53125 -2.765625 0.53125zm12.527222 0q-1.5625 0 -2.953125 -0.4375q-1.390625 -0.453125 -2.1875 -1.125l0.765625 -1.34375q0.765625 0.578125 1.96875 1.0q1.203125 0.40625 2.515625 0.40625q1.8125 0 2.59375 -0.5625q0.796875 -0.5625 0.796875 -1.5q0 -0.6875 -0.453125 -1.078125q-0.4375 -0.40625 -1.15625 -0.609375q-0.71875 -0.203125 -1.609375 -0.34375q-0.890625 -0.140625 -1.765625 -0.328125q-0.875 -0.203125 -1.59375 -0.578125q-0.71875 -0.375 -1.171875 -1.015625q-0.4375 -0.65625 -0.4375 -1.734375q0 -1.03125 0.578125 -1.84375q0.578125 -0.8125 1.6875 -1.28125q1.125 -0.46875 2.734375 -0.46875q1.21875 0 2.4375 0.328125q1.234375 0.3125 2.015625 0.84375l-0.734375 1.375q-0.84375 -0.578125 -1.8125 -0.828125q-0.953125 -0.25 -1.90625 -0.25q-1.703125 0 -2.515625 0.59375q-0.796875 0.578125 -0.796875 1.484375q0 0.71875 0.4375 1.140625q0.4375 0.40625 1.171875 0.640625q0.734375 0.21875 1.609375 0.359375q0.875 0.140625 1.75 0.34375q0.875 0.203125 1.609375 0.5625q0.734375 0.34375 1.171875 0.984375q0.453125 0.625 0.453125 1.65625q0 1.109375 -0.609375 1.921875q-0.609375 0.796875 -1.78125 1.25q-1.15625 0.4375 -2.8125 0.4375zm12.305725 0q-1.78125 0 -2.75 -0.953125q-0.953125 -0.96875 -0.953125 -2.71875l0 -11.84375l1.71875 0l0 11.75q0 1.09375 0.5625 1.703125q0.5625 0.59375 1.609375 0.59375q1.140625 0 1.875 -0.640625l0.609375 1.21875q-0.515625 0.453125 -1.21875 0.671875q-0.703125 0.21875 -1.453125 0.21875zm-5.953125 -11.3125l0 -1.40625l7.796875 0l0 1.40625l-7.796875 0z" fill-rule="nonzero"/><path fill="#000000" fill-opacity="0.0" d="m186.47507 59.574802l226.89764 139.27559" fill-rule="evenodd"/><path stroke="#000000" stroke-width="3.0" stroke-linejoin="round" stroke-linecap="butt" d="m186.47507 59.574802l211.55713 129.85919" fill-rule="evenodd"/><path fill="#000000" stroke="#000000" stroke-width="3.0" stroke-linecap="butt" d="m395.43997 193.65706l14.195007 2.8990326l-9.010559 -11.345169z" fill-rule="evenodd"/><path fill="#000000" fill-opacity="0.0" d="m260.02063 15.068238l146.29922 87.37008l-39.811035 66.58268l-146.29921 -87.37008z" fill-rule="evenodd"/><path fill="#000000" d="m256.45657 50.258453l7.834015 -13.102184l-5.070801 -3.0282974l0.7857971 -1.3142433l11.670929 6.9698944l-0.7857971 1.3142433l-5.0708313 -3.0283012l-7.834015 13.102184l-1.5292969 -0.91329575zm8.426636 5.032402l6.4628906 -10.808968l1.4085388 0.84119415l-1.7560425 2.9369278l0.15713501 -0.5977287q1.1938171 -0.96139145 2.6384888 -0.9722023q1.466095 -0.016208649 3.062439 0.9371414l-0.84994507 1.4215279q-0.09390259 -0.056079865 -0.16638184 -0.117557526q-0.07247925 -0.061481476 -0.1529541 -0.10954666q-1.7036743 -1.0174446 -3.3084106 -0.5562477q-1.5913086 0.46921158 -2.72995 2.37352l-3.3035889 5.525177l-1.4622192 -0.8732376zm14.068726 8.401863l1.4272766 -2.3870888l0.17889404 -0.42095566l2.3894958 -3.9963684q0.8258972 -1.3812943 0.48886108 -2.583538q-0.3156128 -1.2076416 -1.8449097 -2.1209373q-1.0463562 -0.6248894 -2.207306 -0.8450203q-1.1609192 -0.22013092 -2.1630554 -0.036029816l-0.0078125 -1.4788208q1.23526 -0.20865631 2.6134338 0.104824066q1.3862305 0.3000679 2.6740417 1.0691605q2.092743 1.2497749 2.607544 2.9767685q0.5362549 1.7215996 -0.73065186 3.840477l-4.0172424 6.7187233l-1.4085693 -0.84119415zm-3.7934875 -2.1198769q-1.2073364 -0.72102356 -1.8655701 -1.6601028q-0.65823364 -0.9390793 -0.7161865 -1.9382553q-0.044555664 -0.99116135 0.508728 -1.9164925q0.5051575 -0.8448715 1.3165588 -1.2884712q0.819397 -0.45701218 1.9801636 -0.3279686q1.1822205 0.12364578 2.724945 1.0449524l3.729309 2.2271652l-0.6494751 1.0862579l-3.689087 -2.203125q-1.5561218 -0.9293213 -2.5099792 -0.73459625q-0.9324341 0.18932343 -1.429596 1.0207825q-0.5532532 0.9253311 -0.1656189 1.9211922q0.39562988 0.9824524 1.6834717 1.7515411q1.2341614 0.7370491 2.4697266 0.71056366q1.2435913 -0.039894104 2.3009338 -0.8643913l-0.28744507 1.2114792q-1.0359192 0.8190994 -2.4403381 0.8539429q-1.404419 0.03484726 -2.9605408 -0.894474zm21.22998 -2.2812233q1.3146667 0.7851143 2.002655 1.887558q0.70944214 1.0970459 0.655426 2.4661407q-0.053985596 1.3690948 -0.992157 2.9381409l-3.7526245 6.2761765l-1.4622192 -0.87324524l3.6724548 -6.142067q1.0183411 -1.7031479 0.68099976 -3.0875664q-0.31591797 -1.3898163 -1.8586426 -2.3111267q-1.1536865 -0.6889763 -2.2928772 -0.73233414q-1.1311646 -0.05676651 -2.1299133 0.5479393q-0.9772949 0.5993042 -1.7149963 1.8330803l-3.3998413 5.686104l-1.4622192 -0.8732376l6.4628906 -10.808964l1.4085693 0.84119415l-1.7720947 2.963749l0.10873413 -0.69944q1.207367 -0.86229324 2.735138 -0.8598709q1.5411987 0.010437012 3.1107178 0.94776917zm4.7220154 17.779793q-1.3414917 -0.80113983 -2.3108826 -1.8896484q-0.96139526 -1.1019211 -1.3007507 -2.0871582l1.3469238 -0.76075745q0.36062622 0.88874817 1.1770935 1.8677139q0.8244629 0.9655533 1.951294 1.638504q1.5561218 0.9293213 2.5155334 0.84710693q0.97283936 -0.07420349 1.453949 -0.8788376q0.35281372 -0.59007263 0.16421509 -1.1576691q-0.16711426 -0.5729904 -0.67996216 -1.1158524q-0.5128479 -0.54286194 -1.2053223 -1.1202087q-0.69247437 -0.5773392 -1.3475037 -1.1869049q-0.64697266 -0.6229782 -1.0716248 -1.3133545q-0.4246521 -0.6903763 -0.48492432 -1.4725418q-0.03881836 -0.78756714 0.5144348 -1.7128983q0.52923584 -0.8851013 1.4425354 -1.2860336q0.91329956 -0.4009323 2.1063232 -0.23444366q1.2064209 0.17449951 2.5881653 0.99967194q1.0463562 0.62488556 1.9243164 1.531395q0.89941406 0.9011154 1.2975159 1.7576447l-1.3361206 0.8035965q-0.42770386 -0.9288025 -1.131134 -1.6400833q-0.69003296 -0.7032623 -1.5083313 -1.1919556q-1.4622192 -0.8732376 -2.4644775 -0.78022766q-0.9808655 0.08761597 -1.4459229 0.86543274q-0.36886597 0.61688995 -0.20974731 1.2032928q0.16714478 0.57299805 0.67736816 1.1506882q0.5182495 0.5642853 1.1972961 1.1336136q0.67907715 0.56933594 1.3260803 1.1923141q0.64697266 0.6229706 1.0930481 1.3079529q0.45410156 0.6715698 0.50094604 1.4457169q0.06829834 0.7687607 -0.46090698 1.653862q-0.5693054 0.95214844 -1.5094604 1.337059q-0.9321289 0.3714981 -2.1707764 0.15955353q-1.2171936 -0.21733856 -2.6391907 -1.0665436zm7.4499207 4.3034973l7.2807617 -12.176849q0.8579712 -1.4349365 2.2323303 -1.8153229q1.3743591 -0.38038635 2.9707336 0.5729675q0.6170654 0.36852264 1.0976868 0.8739395q0.48062134 0.50541687 0.66116333 1.0864258l-1.1538696 0.80324554q-0.14816284 -0.45246887 -0.48382568 -0.8349304q-0.32226562 -0.37445068 -0.8052063 -0.66285706q-0.92562866 -0.5527878 -1.7346802 -0.32618713q-0.8010559 0.21318054 -1.4024658 1.2189789l-0.9862671 1.6495056l-0.34725952 0.7025757l-5.853485 9.789757l-1.4756165 -0.8812485zm3.8094788 -10.755646l0.72164917 -1.206955l6.694031 3.997673l-0.7216797 1.206955l-6.6940002 -3.997673zm7.2858887 17.527412q-1.6902771 -1.0094299 -2.5531006 -2.4892883q-0.8494568 -1.4718399 -0.828125 -3.1516418q0.034729004 -1.6717911 0.99694824 -3.281067q0.96221924 -1.6092758 2.3840637 -2.4344711q1.4352722 -0.8171921 3.0541687 -0.8149414q1.6323242 0.010261536 3.1347961 0.90753174q1.5292969 0.91329956 2.2928162 2.315651q0.78500366 1.3969574 0.710022 3.044716q-0.061553955 1.6557617 -1.0317993 3.27845q-0.06414795 0.107284546 -0.14971924 0.2199707q-0.06414795 0.107284546 -0.13632202 0.22798157l-9.417236 -5.6239853l0.65753174 -1.0996704l8.625732 5.151314l-0.84143066 0.09806061q0.70562744 -1.1801376 0.7411194 -2.396492q0.056915283 -1.221756 -0.51034546 -2.252098q-0.5538635 -1.0223312 -1.6941223 -1.7032928q-1.1134338 -0.6649475 -2.3034973 -0.6840973q-1.190094 -0.01914215 -2.2477417 0.6231766q-1.0361938 0.63692474 -1.7498474 1.8304749l-0.13632202 0.22798157q-0.7377014 1.2337723 -0.76239014 2.4929733q-0.011291504 1.2672119 0.65527344 2.3750534q0.66656494 1.1078491 1.9275818 1.8609161q0.97927856 0.58483124 2.0462952 0.7488785q1.0670471 0.16405487 2.1171265 -0.19159698l0.24899292 1.4408493q-1.2241821 0.43367767 -2.5834045 0.24071503q-1.3592224 -0.19295502 -2.6470642 -0.9620514zm7.908386 4.5772934l6.46286 -10.80896l1.4085693 0.84119415l-1.7560425 2.9369278l0.15713501 -0.59773254q1.1938171 -0.96138763 2.6384583 -0.9721985q1.466095 -0.016212463 3.0624695 0.9371414l-0.84994507 1.421524q-0.09390259 -0.05607605 -0.16638184 -0.11756134q-0.07247925 -0.06147766 -0.1529541 -0.10954285q-1.7037048 -1.0174484 -3.3084106 -0.5562439q-1.5913086 0.46920776 -2.72995 2.37352l-3.3035889 5.525177l-1.4622192 -0.87324524z" fill-rule="nonzero"/><path fill="#000000" d="m244.08112 76.558304q-1.3951416 -0.8331833 -2.150528 -2.1578598q-0.7339325 -1.3300781 -0.67500305 -2.9510117q0.06695557 -1.634346 1.1253967 -3.4045486q1.0584412 -1.7702026 2.4454498 -2.5980148q1.3950195 -0.84121704 2.8987427 -0.7985687q1.5251465 0.037261963 2.947113 0.886467q1.5561218 0.9293213 2.3599243 2.3557053q0.81181335 1.4129791 0.7636566 3.0767593q-0.034729004 1.6717911 -1.0049591 3.2944717q-0.9862671 1.6495132 -2.4349518 2.4586868q-1.4352722 0.81718445 -3.081009 0.79891205q-1.6377106 -0.031684875 -3.1938324 -0.96099854zm-7.905945 0.5563507l8.852386 -14.805336l1.4085693 0.84119415l-1.9404755 3.2453766l-1.4465485 2.0843964l-1.0977783 2.2926865l-4.3139343 7.21492l-1.4622192 -0.8732376zm8.5898285 -1.9132614q1.1536865 0.6889725 2.3652039 0.70272064q1.2249298 0.021759033 2.3308258 -0.6099396q1.1139221 -0.6451111 1.8676605 -1.9057083q0.7537384 -1.2605972 0.7784424 -2.5197983q0.032714844 -1.2726059 -0.5587616 -2.3538055q-0.57806396 -1.0731888 -1.7317352 -1.7621689q-1.1536865 -0.6889725 -2.4000397 -0.7053375q-1.2329559 -0.008346558 -2.3254395 0.6313629q-1.0844727 0.6263046 -1.838211 1.8869019q-0.7537384 1.2605972 -0.80789185 2.5386047q-0.04612732 1.2646027 0.55336 2.3323898q0.61291504 1.075798 1.7665863 1.7647781zm14.482681 10.268799l1.4272766 -2.387085l0.17886353 -0.42095947l2.3895264 -3.9963608q0.8258972 -1.3813019 0.48883057 -2.5835419q-0.3156128 -1.2076416 -1.8448792 -2.1209412q-1.0463867 -0.62488556 -2.207306 -0.8450165q-1.1609497 -0.22013092 -2.1630554 -0.03603363l-0.007843018 -1.4788208q1.23526 -0.20865631 2.6134644 0.10482788q1.3862305 0.3000641 2.6740417 1.0691605q2.0927124 1.2497711 2.607544 2.9767685q0.5362549 1.7215958 -0.73065186 3.840477l-4.017273 6.7187195l-1.4085388 -0.84119415zm-3.7934875 -2.119873q-1.2073364 -0.72102356 -1.8655853 -1.6601028q-0.65823364 -0.9390793 -0.7161865 -1.9382553q-0.044540405 -0.99115753 0.508728 -1.9164963q0.5051575 -0.8448715 1.3165436 -1.2884674q0.81941223 -0.457016 1.9801941 -0.3279724q1.1822205 0.1236496 2.7249146 1.04496l3.7293396 2.2271576l-0.6495056 1.0862579l-3.689087 -2.203125q-1.5561218 -0.9293213 -2.5099792 -0.73459625q-0.9324188 0.18932343 -1.4295654 1.0207825q-0.55326843 0.9253311 -0.16564941 1.921196q0.39564514 0.9824524 1.6834717 1.7515411q1.2341614 0.7370453 2.469757 0.71056366q1.2435913 -0.039894104 2.3009033 -0.86439514l-0.28744507 1.2114792q-1.0358887 0.8190994 -2.4403076 0.8539429q-1.404419 0.034851074 -2.9605408 -0.8944702zm9.176025 5.3343353l6.4628906 -10.80896l1.4085388 0.84119415l-1.7560425 2.9369278l0.15713501 -0.59773254q1.1938171 -0.96138763 2.6384888 -0.9721985q1.466095 -0.016212463 3.062439 0.9371414l-0.84994507 1.421524q-0.09390259 -0.05607605 -0.16638184 -0.11756134q-0.07247925 -0.06147766 -0.1529541 -0.10954285q-1.7036743 -1.0174484 -3.3084106 -0.5562439q-1.5913086 0.46920776 -2.7299194 2.3735123l-3.3036194 5.5251846l-1.4622192 -0.87324524zm14.068726 8.401871l1.4272766 -2.3870926l0.17889404 -0.42095947l2.3894958 -3.9963608q0.8258972 -1.3812943 0.48886108 -2.5835419q-0.3156128 -1.2076416 -1.8449097 -2.1209412q-1.0463562 -0.62488556 -2.207306 -0.8450165q-1.1609192 -0.22013092 -2.1630554 -0.03603363l-0.0078125 -1.4788132q1.23526 -0.20866394 2.6134644 0.10482025q1.3862 0.30007172 2.6740112 1.0691605q2.092743 1.2497711 2.607544 2.9767685q0.5362549 1.7215958 -0.73065186 3.840477l-4.0172424 6.718727l-1.4085693 -0.84119415zm-3.7934875 -2.1198807q-1.2073364 -0.72102356 -1.8655701 -1.6601028q-0.65823364 -0.9390793 -0.7161865 -1.9382553q-0.044555664 -0.99115753 0.508728 -1.9164963q0.5051575 -0.8448639 1.3165588 -1.2884674q0.819397 -0.45700836 1.9801636 -0.32796478q1.1822205 0.12364197 2.724945 1.0449524l3.729309 2.2271576l-0.6494751 1.0862656l-3.689087 -2.2031326q-1.5561218 -0.92931366 -2.5099792 -0.73459625q-0.9324341 0.18932343 -1.4295654 1.0207825q-0.5532837 0.92533875 -0.16564941 1.921196q0.39562988 0.9824524 1.6834717 1.7515411q1.2341614 0.7370453 2.4697266 0.71056366q1.2435913 -0.039894104 2.3009338 -0.86439514l-0.28744507 1.2114792q-1.0359192 0.8190994 -2.4403381 0.8539505q-1.404419 0.034843445 -2.9605408 -0.89447784zm29.22525 2.4935532q1.3146362 0.7851105 1.9892273 1.8795471q0.6826172 1.0810242 0.6017761 2.4340973q-0.06741333 1.361084 -1.0055542 2.93013l-3.752655 6.276169l-1.4622192 -0.8732376l3.6724548 -6.142067q1.0183411 -1.7031479 0.72125244 -3.06353q-0.2756958 -1.3657837 -1.76474 -2.2550507q-1.1134338 -0.6649399 -2.2123718 -0.68426514q-1.0775146 -0.024719238 -2.0494385 0.5960083q-0.9638977 0.60731506 -1.7015991 1.8410873l-3.3998108 5.6861115l-1.4622192 -0.87324524l3.6724548 -6.142067q1.0183411 -1.7031479 0.7078247 -3.0715408q-0.28909302 -1.3737946 -1.7781372 -2.2630615q-1.0866089 -0.64891815 -2.1989746 -0.6762543q-1.0909424 -0.032730103 -2.0628357 0.58799744q-0.9638977 0.60731506 -1.7015991 1.841095l-3.3998413 5.686104l-1.4622192 -0.8732376l6.4628906 -10.808968l1.4085693 0.84119415l-1.7480469 2.9235153l0.08468628 -0.6592102q1.180542 -0.87831116 2.681488 -0.89191437q1.5143433 -0.005584717 3.0168152 0.8916855q1.5829468 0.945343 2.223297 2.4015198q0.64035034 1.4561691 0.029541016 3.2389069l-0.44854736 -0.55905914q1.2633362 -1.0472565 2.9517822 -1.130867q1.6964722 -0.09702301 3.3867493 0.9124069zm6.350006 18.752037q-1.6902466 -1.0094299 -2.5531006 -2.4892883q-0.84942627 -1.4718399 -0.828125 -3.1516418q0.034729004 -1.6717911 0.99694824 -3.281067q0.96221924 -1.6092758 2.3840637 -2.4344788q1.4352722 -0.81718445 3.0541687 -0.8149338q1.6323242 0.010261536 3.1347961 0.90753174q1.5292969 0.91329956 2.2928467 2.315651q0.78497314 1.3969574 0.70999146 3.044716q-0.061553955 1.6557617 -1.0317993 3.27845q-0.06414795 0.107284546 -0.14971924 0.2199707q-0.06414795 0.107284546 -0.13632202 0.22798157l-9.417236 -5.6239853l0.65753174 -1.0996704l8.625763 5.151314l-0.8414612 0.09806061q0.70562744 -1.1801376 0.7411194 -2.396492q0.056915283 -1.221756 -0.51034546 -2.252098q-0.553833 -1.0223312 -1.6941223 -1.7033005q-1.1134338 -0.6649399 -2.3034973 -0.68408966q-1.190094 -0.01914215 -2.2477417 0.6231766q-1.0361938 0.63692474 -1.7498474 1.8304749l-0.13632202 0.22798157q-0.7376709 1.2337723 -0.76239014 2.4929733q-0.011291504 1.2672119 0.65527344 2.3750534q0.66656494 1.1078491 1.9275818 1.8609161q0.97927856 0.58483124 2.0463257 0.7488785q1.0670166 0.16405487 2.117096 -0.19159698l0.24899292 1.4408493q-1.2241516 0.43367767 -2.5834045 0.24071503q-1.3592224 -0.19295502 -2.6470642 -0.9620514zm11.265015 6.727478q-1.5292969 -0.91329193 -1.8718872 -2.2280502q-0.321167 -1.3201523 0.5769043 -2.822136l6.078003 -10.16526l1.475647 0.8812485l-6.029907 10.084793q-0.5612793 0.9387436 -0.39105225 1.7501678q0.17822266 0.7980194 1.0770264 1.3347778q0.97927856 0.58483124 1.9385376 0.41152954l-0.102264404 1.3584747q-0.67523193 0.12452698 -1.3911438 -0.048233032q-0.7159424 -0.17276001 -1.3598633 -0.557312zm0.6943054 -12.761627l0.7216797 -1.206955l6.6940002 3.997673l-0.72164917 1.2069626l-6.694031 -3.9976807zm8.460419 18.228836q-1.6902771 -1.0094299 -2.553131 -2.4892883q-0.84942627 -1.4718399 -0.8280945 -3.1516418q0.034729004 -1.6717911 0.9969177 -3.281067q0.96221924 -1.6092758 2.3840942 -2.4344788q1.4352722 -0.81718445 3.0541687 -0.8149338q1.6323242 0.010261536 3.1347656 0.90753174q1.5292969 0.91329956 2.2928467 2.315651q0.78497314 1.3969574 0.710022 3.0447083q-0.061553955 1.6557693 -1.0317993 3.2784576q-0.06414795 0.107284546 -0.14971924 0.2199707q-0.06414795 0.107284546 -0.13632202 0.22798157l-9.417236 -5.6239853l0.6575012 -1.0996704l8.625763 5.151314l-0.84143066 0.09806061q0.70562744 -1.1801376 0.74108887 -2.396492q0.0569458 -1.221756 -0.51031494 -2.252098q-0.5538635 -1.0223312 -1.6941223 -1.7033005q-1.1134338 -0.6649399 -2.3035278 -0.68408966q-1.1900635 -0.01914215 -2.2477112 0.6231766q-1.0362244 0.63692474 -1.7498474 1.8304749l-0.13632202 0.22797394q-0.7377014 1.2337799 -0.76239014 2.492981q-0.011291504 1.2672119 0.65527344 2.3750534q0.66656494 1.1078491 1.9275513 1.8609161q0.9793091 0.58483124 2.0463257 0.7488785q1.0670471 0.16405487 2.1171265 -0.19159698l0.24899292 1.4408417q-1.2241821 0.4336853 -2.5834045 0.24072266q-1.3592224 -0.19296265 -2.6470642 -0.9620514zm7.9083557 4.577301l6.4628906 -10.808968l1.4085693 0.84119415l-1.7560425 2.9369278l0.15713501 -0.59773254q1.1938171 -0.96138763 2.6384583 -0.9722061q1.466095 -0.016204834 3.0624695 0.93714905l-0.84994507 1.421524q-0.09390259 -0.05608368 -0.16638184 -0.11756134q-0.07247925 -0.06147766 -0.1529541 -0.10954285q-1.7037048 -1.0174484 -3.3084106 -0.5562515q-1.5913391 0.4692154 -2.72995 2.37352l-3.3035889 5.525177l-1.4622498 -0.87323zm11.068359 6.755615q-1.3414917 -0.8011322 -2.3108826 -1.8896484q-0.96139526 -1.1019135 -1.3007507 -2.0871582l1.3468933 -0.76075745q0.36065674 0.88874817 1.1770935 1.8677216q0.8244629 0.96554565 1.9513245 1.638504q1.5561218 0.9293213 2.5155334 0.84710693q0.97280884 -0.07420349 1.4539185 -0.8788452q0.35281372 -0.59007263 0.1642456 -1.1576538q-0.16714478 -0.57299805 -0.67996216 -1.11586q-0.5128479 -0.54286194 -1.2053528 -1.1202087q-0.69247437 -0.5773468 -1.3474731 -1.1869049q-0.6470032 -0.6229706 -1.0716248 -1.3133545q-0.4246521 -0.6903839 -0.48492432 -1.4725494q-0.038848877 -0.78756714 0.5144348 -1.7128906q0.5292053 -0.8851013 1.4425354 -1.2860413q0.91329956 -0.40092468 2.1062927 -0.23443604q1.2064514 0.17449951 2.5881653 0.9996643q1.0463562 0.6248932 1.9243469 1.5314026q0.89938354 0.9011078 1.2975159 1.7576447l-1.3361206 0.80358887q-0.42773438 -0.9288025 -1.1311646 -1.6400757q-0.69000244 -0.7032623 -1.5083008 -1.1919556q-1.4622192 -0.87324524 -2.464508 -0.78022766q-0.98083496 0.08761597 -1.4458923 0.86543274q-0.36886597 0.6168823 -0.20974731 1.2032928q0.16714478 0.57299805 0.67736816 1.1506805q0.518219 0.5642853 1.1972961 1.1336212q0.67907715 0.56933594 1.3260498 1.1923065q0.6470032 0.6229706 1.0930786 1.3079529q0.45410156 0.6715698 0.50094604 1.4457245q0.06829834 0.76875305 -0.4609375 1.6538544q-0.5693054 0.9521637 -1.5094299 1.3370667q-0.9321289 0.37149048 -2.1707764 0.1595459q-1.2172241 -0.21733093 -2.6391907 -1.0665436z" fill-rule="nonzero"/></g></svg>